<?xml version="1.0" encoding="iso-8859-1"?>
<!-- Generator: Adobe Illustrator 19.0.0, SVG Export Plug-In . SVG Version: 6.00 Build 0)  -->
<svg version="1.1" id="Capa_1" xmlns="http://www.w3.org/2000/svg" xmlns:xlink="http://www.w3.org/1999/xlink" x="0px" y="0px"
	 viewBox="0 0 496 496" style="enable-background:new 0 0 496 496;" xml:space="preserve">
<polygon style="fill:#ECECEC;" points="40,304 8,304 8,336 40,336 456,336 488,336 488,304 456,304 "/>
<path style="fill:#F9E0A6;" d="M192,304v184h104v-50.752c0-8.488,3.368-16.624,9.376-22.624l5.256-5.256
	c6-6.008,9.368-14.144,9.368-22.632V304H192z"/>
<path style="fill:#EABD8C;" d="M192,352h8c60.888,0,93.072,51.344,101.584,67.24c1.12-1.64,2.368-3.2,3.784-4.616l5.256-5.256
	c6.008-6.008,9.376-14.144,9.376-22.632V312H192V352z"/>
<rect x="96" y="296" style="fill:#ECECEC;" width="304" height="48"/>
<g>
	<rect x="176" y="296" style="fill:#B6C1CE;" width="144" height="48"/>
	<rect x="368" y="296" style="fill:#B6C1CE;" width="32" height="48"/>
	<rect x="96" y="296" style="fill:#B6C1CE;" width="32" height="48"/>
</g>
<g>
	<polygon style="fill:#8C95A4;" points="72,216 72,256 40,256 40,384 72,384 72,424 104,424 104,216 	"/>
	<polygon style="fill:#8C95A4;" points="424,256 424,216 392,216 392,424 424,424 424,384 456,384 456,256 	"/>
</g>
<path style="fill:#FB5968;" d="M240,232L131.88,123.88c-12.728-12.728-19.88-30-19.88-48l0,0C112,38.392,142.392,8,179.88,8l0,0
	c18,0,35.272,7.152,48,19.88L240,40l12.12-12.12c12.728-12.728,30-19.88,48-19.88l0,0C337.608,8,368,38.392,368,75.88l0,0
	c0,18-7.152,35.272-19.88,48L240,232z"/>
<g>
	<path style="fill:#F9E0A6;" d="M320,279.992V328c0,8.84-7.16,16-16,16l0,0c-8.84,0-16-7.16-16-16v-48.008c0-8.84,7.16-16,16-16l0,0
		C312.84,263.992,320,271.152,320,279.992z"/>
	<path style="fill:#F9E0A6;" d="M288,279.992V328c0,8.84-7.16,16-16,16l0,0c-8.84,0-16-7.16-16-16v-48.008c0-8.84,7.16-16,16-16l0,0
		C280.84,263.992,288,271.152,288,279.992z"/>
	<path style="fill:#F9E0A6;" d="M256,280v48.008c0,8.84-7.16,16-16,16l0,0c-8.84,0-16-7.16-16-16V280c0-8.84,7.16-16,16-16l0,0
		C248.84,264,256,271.16,256,280z"/>
	<path style="fill:#F9E0A6;" d="M224,280.008v48.008c0,8.84-7.16,16-16,16l0,0c-8.84,0-16-7.16-16-16v-48.008c0-8.84,7.16-16,16-16
		l0,0C216.84,264.008,224,271.176,224,280.008z"/>
</g>
<path style="fill:#EABD8C;" d="M192,304v24h24c8.84,0,16-7.16,16-16v-8H192z"/>
<g>
	<rect x="424" y="256" style="fill:#798699;" width="16" height="128"/>
	<rect x="56" y="256" style="fill:#798699;" width="16" height="128"/>
</g>
<path style="fill:#F9E0A6;" d="M216,287.992h-32c-13.256,0-24,10.744-24,24v70.056c0,6.368,2.528,12.472,7.032,16.968l17.944,17.944
	c4.496,4.504,7.024,10.608,7.024,16.968v54.08L224,488v-88.008V377.88c0-10.96-6.192-20.984-16-25.888s-16-14.928-16-25.888v-6.112
	h24c8.84,0,16-7.16,16-16l0,0C232,295.152,224.84,287.992,216,287.992z"/>
<path d="M300.12,0c-20.272,0-39.328,7.896-53.656,22.224L240,28.688l-6.464-6.464C219.208,7.896,200.152,0,179.88,0
	C138.04,0,104,34.04,104,75.88c0,20.272,7.896,39.328,22.224,53.656L240,243.312l113.776-113.776
	C368.104,115.208,376,96.152,376,75.88C376,34.04,341.96,0,300.12,0z M240,220.688L137.536,118.224
	C131.16,111.84,126.464,104.248,123.52,96h46.936l29.304,78.144l33.68-84.192L251.472,120H312v-16h-51.472L230.56,54.056
	l-30.32,75.808L181.544,80H120.2c-0.088-1.368-0.2-2.736-0.2-4.12C120,42.864,146.864,16,179.88,16c16,0,31.032,6.232,42.344,17.536
	L240,51.312l17.776-17.776C269.088,22.232,284.12,16,300.12,16C333.136,16,360,42.864,360,75.88c0,9.992-2.568,19.552-7.16,28.12
	H328v16h12.688L240,220.688z"/>
<path d="M496,295.992h-32v-48h-32v-40h-48v80h-56v-8c0-13.232-10.768-24-24-24c-6.168,0-11.744,2.408-16,6.24
	c-4.256-3.84-9.832-6.24-16-6.24s-11.744,2.408-16,6.24c-4.256-3.84-9.832-6.24-16-6.24s-11.744,2.408-16,6.24
	c-4.256-3.84-9.832-6.24-16-6.24c-13.232,0-24,10.768-24,24c-8.048,0-15.32,3.088-20.952,8.008L112,287.992v-80H64v40H32v48H0v48h32
	v48h32v40h48v-80h40v30.056c0,8.544,3.328,16.584,9.376,22.632l17.936,17.936c2.984,2.976,4.688,7.104,4.688,11.312V480h-32v16h184
	v-16h-32v-42.76c0-6.32,2.56-12.496,7.024-16.96l5.264-5.256c7.552-7.56,11.712-17.608,11.712-28.288v-34.744h56v80h48v-40h32v-48
	h32V295.992z M304,271.992c4.408,0,8,3.584,8,8v40V328c0,4.416-3.592,8-8,8s-8-3.584-8-8v-48.008
	C296,275.576,299.592,271.992,304,271.992z M272,271.992c4.408,0,8,3.584,8,8V328c0,4.416-3.592,8-8,8s-8-3.584-8-8v-48.008
	C264,275.576,267.592,271.992,272,271.992z M240,271.992c4.408,0,8,3.584,8,8V328c0,4.416-3.592,8-8,8s-8-3.584-8-8v-6.248
	c4.872-4.392,8-10.696,8-17.76s-3.128-13.36-8-17.76v-6.24C232,275.576,235.592,271.992,240,271.992z M216,328c0,4.416-3.592,8-8,8
	c-3.176,0-5.88-1.896-7.168-4.592c-0.296-1.128-0.648-2.24-0.752-3.416L216,328L216,328z M208,271.992c4.408,0,8,3.584,8,8h-16
	C200,275.576,203.592,271.992,208,271.992z M16,327.992v-16h16v16H16z M96,415.992H80V296H64v79.992H48v-112h16V280h16v-56.008h16
	V415.992z M112,335.992v-32L153.136,304c-0.672,2.568-1.136,5.216-1.136,7.992v24H112z M304.976,403.704l-5.264,5.256
	C292.16,416.512,288,426.552,288,437.24V480h-88v-46.072c0-8.432-3.416-16.672-9.376-22.624l-17.936-17.936
	c-3.024-3.024-4.688-7.048-4.688-11.32v-70.056c0-8.824,7.176-16,16-16h32c4.408,0,8,3.584,8,8s-3.592,8-8,8h-32V320v6.104V328
	c0,2.368,0.448,4.616,1.096,6.776c2.504,10.456,9.4,19.4,19.328,24.368C211.568,362.72,216,369.888,216,377.88v22.112h16V377.88
	c0-11.248-5.04-21.512-13.456-28.432c1.992-0.984,3.824-2.224,5.456-3.696c4.256,3.84,9.832,6.24,16,6.24s11.744-2.408,16-6.24
	c4.256,3.84,9.832,6.24,16,6.24s11.744-2.408,16-6.24c4.256,3.84,9.832,6.24,16,6.24c2.816,0,5.488-0.576,8-1.472v36.208
	C312,393.144,309.504,399.168,304.976,403.704z M328,335.992V328v-8.008v-16h56v32H328z M448,375.992h-16V360h-16v55.992h-16v-192
	h16V344h16v-80.008h16V375.992z M480,327.992h-16v-16h16V327.992z"/>
<g>
</g>
<g>
</g>
<g>
</g>
<g>
</g>
<g>
</g>
<g>
</g>
<g>
</g>
<g>
</g>
<g>
</g>
<g>
</g>
<g>
</g>
<g>
</g>
<g>
</g>
<g>
</g>
<g>
</g>
</svg>
