<?xml version="1.0" standalone="no"?>
<!DOCTYPE svg PUBLIC "-//W3C//DTD SVG 20010904//EN"
 "http://www.w3.org/TR/2001/REC-SVG-20010904/DTD/svg10.dtd">
<svg version="1.0" xmlns="http://www.w3.org/2000/svg"
 width="200.000000pt" height="200.000000pt" viewBox="0 0 200.000000 200.000000"
 preserveAspectRatio="xMidYMid meet">

<g transform="translate(0.000000,200.000000) scale(0.100000,-0.100000)"
fill="#9e9e9e" stroke="none">
<path d="M880 1981 c-5 -11 -10 -31 -10 -45 l0 -26 -408 0 c-304 0 -411 -3
-420 -12 -18 -18 -16 -153 3 -171 13 -13 15 -103 17 -649 l3 -633 273 -3 c149
-1 272 -4 272 -7 0 -2 -32 -92 -71 -200 -38 -108 -69 -204 -67 -213 3 -14 19
-17 104 -20 l101 -3 29 78 30 78 264 0 264 0 30 -78 29 -78 101 3 c85 3 101 6
104 20 2 9 -29 105 -67 213 -39 108 -71 198 -71 200 0 3 123 6 273 7 l272 3 3
633 c2 546 4 636 17 649 19 18 21 153 3 171 -9 9 -116 12 -420 12 l-408 0 0
26 c0 59 -11 64 -130 64 -98 0 -110 -2 -120 -19z m180 -56 c0 -12 -13 -15 -60
-15 -47 0 -60 3 -60 15 0 12 13 15 60 15 47 0 60 -3 60 -15z m848 -112 l-3
-28 -905 0 -905 0 -3 28 -3 27 911 0 911 0 -3 -27z m-38 -703 l0 -610 -870 0
-870 0 0 610 0 610 870 0 870 0 0 -610z m-1142 -782 c-22 -62 -52 -147 -66
-188 l-27 -75 -42 -3 c-24 -2 -43 1 -43 7 0 7 67 200 125 359 3 7 22 12 49 12
l45 0 -41 -112z m459 47 c13 -32 23 -61 23 -62 0 -2 -94 -3 -210 -3 -116 0
-210 1 -210 3 0 4 42 112 47 120 2 4 77 6 166 5 l161 -3 23 -60z m199 -118
c35 -99 64 -183 64 -188 0 -6 -19 -9 -42 -7 l-43 3 -27 75 c-14 41 -45 126
-67 188 l-41 113 46 -3 47 -3 63 -178z m-148 -24 c3 -10 -49 -13 -237 -13
-221 0 -254 3 -234 24 4 3 110 5 237 4 173 -2 230 -6 234 -15z"/>
<path d="M510 1551 c-90 -29 -165 -95 -202 -176 -34 -75 -32 -181 4 -255 34
-69 77 -114 143 -148 43 -23 62 -27 140 -27 81 0 95 3 144 30 225 125 219 438
-11 556 -46 24 -171 36 -218 20z m50 -127 c0 -71 -2 -79 -31 -112 -24 -27 -30
-42 -27 -68 3 -30 -3 -40 -54 -91 l-57 -57 -22 50 c-42 92 -24 201 44 273 28
29 117 81 140 81 4 0 7 -34 7 -76z m157 43 c43 -23 97 -89 111 -136 26 -87 9
-177 -46 -241 -44 -52 -101 -81 -173 -87 -47 -5 -66 -1 -115 21 l-58 27 54 54
c49 49 59 55 97 55 61 0 98 34 98 90 0 33 -6 47 -28 66 -25 21 -27 28 -27 103
l0 80 28 -8 c16 -5 42 -16 59 -24z m-99 -215 c4 -28 -24 -40 -45 -19 -14 13
-14 19 -3 32 18 22 44 15 48 -13z"/>
<path d="M1096 1544 c-8 -20 -8 -568 0 -588 5 -14 42 -16 310 -16 263 0 305 2
310 15 8 20 -13 45 -37 45 -18 0 -19 10 -19 139 0 77 -3 146 -6 155 -8 21 -50
21 -58 0 -3 -9 -6 -78 -6 -155 l0 -139 -30 0 -30 0 0 69 c0 49 -4 72 -15 81
-29 24 -45 -5 -45 -81 l0 -69 -30 0 -30 0 0 189 c0 159 -3 192 -16 205 -8 9
-17 16 -19 16 -2 0 -11 -7 -19 -16 -13 -13 -16 -46 -16 -205 l0 -189 -30 0
-30 0 0 104 c0 108 -7 124 -45 110 -12 -5 -15 -27 -15 -110 l0 -104 -30 0 -30
0 0 264 c0 145 -3 271 -6 280 -3 9 -16 16 -29 16 -13 0 -26 -7 -29 -16z"/>
<path d="M284 825 c-4 -8 -1 -22 6 -30 11 -13 58 -15 306 -15 269 0 294 1 302
18 22 41 14 42 -304 42 -263 0 -305 -2 -310 -15z"/>
<path d="M1096 824 c-16 -41 2 -44 309 -44 247 0 294 2 305 15 7 8 10 22 6 30
-5 13 -47 15 -310 15 -271 0 -305 -2 -310 -16z"/>
<path d="M414 735 c-4 -8 -4 -22 0 -30 5 -13 32 -15 183 -13 l178 3 0 25 0 25
-178 3 c-151 2 -178 0 -183 -13z"/>
<path d="M1224 735 c-4 -8 -4 -22 0 -30 5 -13 32 -15 183 -13 l178 3 0 25 0
25 -178 3 c-151 2 -178 0 -183 -13z"/>
</g>
</svg>
