<?xml version="1.0" standalone="no"?>
<!DOCTYPE svg PUBLIC "-//W3C//DTD SVG 20010904//EN"
 "http://www.w3.org/TR/2001/REC-SVG-20010904/DTD/svg10.dtd">
<svg version="1.0" xmlns="http://www.w3.org/2000/svg"
 width="512.000000pt" height="512.000000pt" viewBox="0 0 981.000000 981.000000"
 preserveAspectRatio="xMidYMid meet">

<g transform="translate(0.000000,981.000000) scale(0.100000,-0.100000)"
fill="#9e9e9e" stroke="none">
<path d="M7450 9793 c-196 -29 -431 -131 -606 -260 -49 -37 -141 -119 -205
-182 -177 -178 -296 -346 -502 -709 -241 -423 -395 -636 -642 -891 -379 -389
-750 -600 -1195 -678 -85 -15 -260 -18 -1675 -23 l-1580 -5 -80 -23 c-332 -96
-606 -335 -780 -681 -349 -697 -185 -1661 357 -2096 209 -167 389 -235 673
-255 80 -5 155 -16 195 -29 191 -60 346 -224 407 -429 16 -52 18 -178 23
-1552 l5 -1495 22 -58 c79 -206 242 -354 443 -401 55 -13 171 -16 751 -16 650
0 690 1 763 20 102 26 187 72 263 143 80 76 130 151 167 257 l31 85 0 245 c0
214 -2 252 -19 300 -26 76 -74 153 -163 262 -42 51 -86 116 -99 143 l-24 50 0
1082 c0 1115 1 1146 40 1223 26 51 87 110 138 132 55 25 124 19 293 -23 217
-55 411 -142 617 -279 156 -104 279 -209 442 -377 211 -217 404 -480 568 -773
39 -69 79 -138 90 -155 11 -16 38 -61 60 -100 170 -299 420 -592 639 -748 167
-119 377 -209 567 -242 116 -20 326 -19 447 1 759 130 1364 941 1689 2263 104
425 171 867 212 1401 19 251 16 1003 -5 1265 -94 1158 -347 2063 -764 2738
-182 293 -442 560 -689 706 -257 151 -573 211 -874 164z m374 -619 c654 -168
1196 -1353 1330 -2904 57 -660 39 -1309 -54 -1960 -192 -1338 -703 -2306
-1291 -2445 -143 -33 -321 -11 -464 59 -402 197 -765 806 -985 1651 -42 158
-90 374 -90 400 0 13 51 15 414 15 234 0 449 5 493 11 235 31 454 144 636 326
257 258 409 611 448 1038 32 357 -52 763 -217 1050 -176 305 -422 508 -729
602 l-90 27 -479 4 -478 3 6 42 c25 161 116 508 191 733 299 890 754 1398
1225 1368 41 -3 102 -12 134 -20z m-2204 -2255 c-141 -874 -142 -1860 -4
-2758 14 -90 24 -165 22 -166 -2 -2 -33 19 -68 47 -449 350 -1008 558 -1504
558 -104 0 -196 15 -260 43 -56 24 -144 91 -200 154 -101 112 -189 319 -222
518 -19 122 -15 361 10 475 64 294 207 510 401 606 l75 37 183 8 c221 10 325
22 477 55 354 79 719 255 1034 501 38 29 70 52 73 50 2 -2 -6 -60 -17 -128z
m-2307 -556 c-334 -467 -331 -1226 8 -1690 l49 -68 -1072 -3 c-746 -2 -1093 1
-1138 8 -196 33 -378 215 -470 467 -72 200 -95 469 -57 679 63 348 262 618
497 674 19 4 531 8 1137 9 l1102 1 -56 -77z m3877 53 c364 -156 556 -705 426
-1218 -82 -325 -275 -548 -506 -588 -43 -7 -215 -10 -500 -8 l-435 3 -7 70
c-49 486 -52 1096 -6 1623 l12 143 485 -3 c453 -3 489 -4 531 -22z m-3775
-2443 c-41 -107 -40 -67 -43 -1323 -2 -1076 -1 -1202 14 -1270 31 -143 97
-267 222 -420 l62 -75 0 -132 0 -133 -610 0 -609 0 -4 1463 c-3 1448 -3 1463
-24 1547 -29 115 -59 202 -99 282 -19 37 -34 70 -34 73 0 3 255 5 566 5 535 0
566 -1 559 -17z"/>
</g>
</svg>
