<?xml version="1.0" standalone="no"?>
<!DOCTYPE svg PUBLIC "-//W3C//DTD SVG 20010904//EN"
 "http://www.w3.org/TR/2001/REC-SVG-20010904/DTD/svg10.dtd">
<svg version="1.0" xmlns="http://www.w3.org/2000/svg"
 width="512.000000pt" height="512.000000pt" viewBox="0 0 512.000000 512.000000"
 preserveAspectRatio="xMidYMid meet">

<g transform="translate(0.000000,512.000000) scale(0.100000,-0.100000)"
fill="#9e9e9e" stroke="none">
<path d="M836 5029 c-108 -26 -230 -126 -279 -232 -48 -101 -48 -104 -45
-1277 l3 -1105 22 -55 c46 -111 142 -207 253 -253 55 -22 57 -22 732 -25 l677
-3 3 -184 c3 -161 5 -187 21 -202 15 -15 41 -19 170 -23 l152 -5 15 -43 14
-42 -102 -103 c-146 -146 -153 -120 111 -384 264 -264 238 -257 383 -112 l102
101 43 -14 44 -15 3 -150 c2 -138 4 -152 23 -169 20 -18 41 -19 325 -19 380 0
348 -18 352 195 l3 150 40 11 39 12 104 -101 c147 -145 120 -154 389 116 150
151 217 225 217 240 0 22 -70 106 -136 164 -19 17 -43 43 -54 58 -18 26 -19
29 -3 69 l16 41 148 0 c205 0 189 -29 189 341 0 194 -4 296 -11 313 -7 14 -25
29 -40 35 -27 9 -28 12 -16 38 16 38 23 2162 7 2268 -27 174 -137 305 -299
355 -62 20 -97 20 -1820 19 -1018 -1 -1772 -5 -1795 -10z m3562 -154 c71 -21
131 -70 167 -135 l30 -55 3 -960 2 -960 -95 95 -95 94 -2 679 -3 679 -24 19
c-23 19 -65 19 -1751 19 l-1729 0 -20 -26 c-21 -27 -21 -31 -21 -921 l0 -894
25 -24 24 -25 826 0 c454 0 825 -3 825 -6 0 -4 -5 -24 -11 -45 l-12 -38 -147
-3 c-174 -4 -187 -10 -192 -87 l-3 -46 -655 0 c-644 0 -656 0 -700 21 -62 29
-105 67 -138 123 l-27 46 0 1135 0 1135 22 40 c37 69 112 127 188 146 17 4
802 7 1746 8 1510 1 1722 -1 1767 -14z m-148 -1215 l0 -539 -35 20 c-22 14
-42 18 -57 14 -13 -4 -68 -52 -123 -106 l-101 -99 -39 13 -40 14 -5 152 c-5
146 -6 154 -29 172 -22 18 -43 19 -321 19 -278 0 -299 -1 -321 -19 -23 -18
-24 -26 -29 -171 l-5 -152 -38 -16 -39 -15 -101 101 c-153 152 -123 160 -388
-104 -188 -189 -219 -224 -219 -250 0 -16 7 -40 16 -52 l15 -22 -685 0 -686 0
0 790 0 790 1615 0 1615 0 0 -540z m-550 -605 c0 -168 1 -170 120 -215 30 -12
64 -27 76 -35 21 -13 44 -18 78 -16 10 0 62 44 115 96 l97 95 139 -140 140
-140 -98 -98 c-87 -88 -97 -101 -97 -134 0 -20 4 -39 9 -43 5 -3 24 -42 41
-88 44 -117 45 -117 206 -117 l134 0 0 -200 0 -200 -144 0 -144 0 -26 -31
c-14 -17 -26 -36 -26 -43 0 -6 -16 -45 -36 -86 -49 -102 -45 -113 69 -228 l92
-92 -135 -135 c-74 -74 -138 -135 -142 -135 -4 0 -31 26 -60 57 -140 152 -136
151 -242 110 -34 -13 -82 -32 -107 -41 -30 -11 -50 -25 -58 -42 -6 -14 -11
-77 -11 -149 l0 -125 -195 0 -195 0 0 134 c0 161 0 162 -117 206 -46 17 -85
36 -88 41 -4 5 -22 9 -42 9 -32 0 -47 -11 -132 -95 l-97 -95 -139 140 -139
140 97 98 c63 64 97 107 97 121 0 12 -11 43 -23 69 -13 26 -32 71 -43 101 -30
85 -43 91 -201 91 l-133 0 2 193 3 192 135 3 c151 3 168 10 191 81 6 20 25 64
42 97 22 46 28 69 23 90 -4 16 -46 67 -94 116 l-86 89 139 139 140 140 95 -94
c52 -51 103 -96 113 -100 10 -3 56 11 111 34 51 22 97 40 102 40 4 0 18 10 31
22 22 20 23 28 23 160 l0 138 195 0 195 0 0 -125z m910 -480 c0 -54 -18 -141
-36 -177 -13 -24 -21 -28 -58 -28 -43 0 -45 1 -62 46 l-17 45 79 80 c43 43 82
79 86 79 5 0 8 -20 8 -45z"/>
<path d="M1590 4677 c-14 -7 -31 -25 -38 -41 -36 -74 64 -141 123 -81 31 30
32 66 3 99 -29 31 -57 39 -88 23z"/>
<path d="M1979 4679 c-50 -18 -63 -85 -24 -124 68 -69 178 26 113 98 -28 31
-54 38 -89 26z"/>
<path d="M1203 4668 c-76 -37 -27 -161 57 -143 70 15 80 114 13 144 -29 13
-41 13 -70 -1z"/>
<path d="M1199 3940 c-29 -17 -43 -65 -27 -96 25 -54 24 -54 539 -52 453 3
478 4 498 22 14 13 21 31 21 55 -1 83 11 81 -537 81 -282 0 -485 -4 -494 -10z"/>
<path d="M1187 3533 c-30 -34 -31 -67 -2 -101 l27 -32 404 0 c391 0 405 1 424
20 12 12 20 33 20 55 0 22 -8 43 -20 55 -19 19 -33 20 -428 20 -377 0 -410 -1
-425 -17z"/>
<path d="M1204 3149 c-22 -11 -44 -48 -44 -75 0 -9 13 -29 29 -45 l29 -29 317
0 316 0 24 25 c30 29 32 74 6 106 l-19 24 -319 2 c-207 1 -325 -2 -339 -8z"/>
<path d="M3420 2570 c-127 -19 -233 -74 -321 -167 -99 -104 -147 -211 -156
-353 -17 -270 159 -509 427 -576 88 -22 233 -15 315 16 81 30 186 101 235 158
77 89 139 251 140 365 0 21 -7 72 -16 114 -59 289 -337 485 -624 443z m191
-166 c77 -23 131 -57 188 -120 72 -78 95 -144 96 -270 0 -96 -2 -103 -38 -176
-147 -298 -573 -297 -720 1 -30 62 -32 72 -32 176 0 99 3 116 27 168 34 72 65
111 130 159 93 71 235 96 349 62z"/>
<path d="M1021 1934 c-18 -23 -21 -41 -21 -124 0 -128 -10 -134 -94 -52 -70
68 -99 86 -129 78 -35 -9 -337 -318 -337 -345 0 -15 26 -50 75 -101 100 -102
97 -110 -40 -110 -88 0 -106 -3 -129 -21 l-26 -20 0 -223 c0 -274 -8 -259 145
-264 135 -5 139 -12 47 -106 -79 -81 -87 -97 -68 -134 21 -38 296 -309 323
-317 31 -9 58 8 133 81 39 38 70 60 76 56 8 -4 13 -46 15 -108 6 -152 -9 -144
269 -144 287 0 273 -7 279 142 2 62 7 106 14 110 7 4 41 -22 82 -61 38 -37 80
-71 92 -75 36 -11 70 14 220 166 177 178 177 180 78 278 -91 90 -88 100 24
100 103 0 144 12 160 46 7 16 11 100 11 238 0 272 7 260 -145 264 -136 5 -140
12 -51 101 102 103 102 101 -92 294 -128 127 -164 157 -186 157 -21 0 -46 -18
-102 -71 -95 -93 -104 -88 -104 52 0 146 14 139 -269 139 l-230 0 -20 -26z
m349 -189 c0 -101 15 -128 82 -153 29 -11 68 -28 85 -37 44 -22 66 -13 136 53
l58 56 80 -80 80 -81 -56 -66 c-52 -61 -57 -70 -52 -104 6 -53 52 -154 78
-175 17 -14 40 -18 110 -18 l89 0 0 -115 0 -115 -84 0 c-76 0 -87 -3 -115 -26
-17 -14 -31 -31 -31 -38 0 -7 -11 -35 -25 -62 -39 -77 -35 -100 35 -169 l60
-59 -82 -83 -82 -82 -67 64 c-44 42 -75 65 -91 65 -42 0 -185 -70 -197 -97 -6
-13 -11 -62 -11 -108 l0 -85 -115 0 -115 0 0 85 c0 107 -12 127 -91 156 -33
12 -62 26 -65 30 -3 5 -21 9 -41 9 -30 0 -45 -10 -103 -65 l-67 -66 -76 83
-76 83 66 66 c60 61 65 70 60 100 -9 61 -62 173 -88 186 -13 7 -61 13 -106 13
l-83 0 0 115 0 115 88 0 c105 0 122 10 152 92 12 32 26 60 31 63 5 4 9 22 9
42 0 30 -10 45 -65 102 l-64 67 82 82 83 82 58 -59 c33 -33 70 -62 83 -66 28
-7 178 55 199 82 9 12 13 48 14 106 l0 87 115 0 115 0 0 -75z"/>
<path d="M1145 1427 c-118 -39 -207 -117 -258 -225 -30 -63 -32 -74 -32 -177
0 -103 2 -114 31 -176 78 -164 213 -244 397 -237 79 2 102 8 159 35 88 41 160
113 201 201 30 63 32 74 32 177 0 106 -2 114 -34 180 -43 87 -110 153 -198
197 -59 29 -77 33 -162 35 -60 2 -111 -2 -136 -10z m248 -175 c152 -82 181
-289 59 -411 -108 -108 -266 -108 -373 -1 -49 49 -79 119 -79 185 0 48 25 122
54 160 29 38 100 83 149 96 53 13 136 1 190 -29z"/>
</g>
</svg>
