<?xml version="1.0" standalone="no"?>
<!DOCTYPE svg PUBLIC "-//W3C//DTD SVG 20010904//EN"
 "http://www.w3.org/TR/2001/REC-SVG-20010904/DTD/svg10.dtd">
<svg version="1.0" xmlns="http://www.w3.org/2000/svg"
 width="512.000000pt" height="512.000000pt" viewBox="0 0 512.000000 512.000000"
 preserveAspectRatio="xMidYMid meet">

<g transform="translate(0.000000,512.000000) scale(0.100000,-0.100000)"
fill="#9e9e9e" stroke="none">
<path d="M2777 5109 c-191 -45 -296 -214 -284 -459 4 -84 25 -195 106 -559 55
-250 101 -462 101 -473 0 -14 -8 -18 -37 -18 -21 -1 -217 -16 -436 -34 -387
-32 -399 -33 -421 -57 -13 -13 -125 -189 -250 -391 -237 -384 -247 -407 -207
-447 11 -11 47 -29 81 -42 l62 -23 -68 -22 c-71 -23 -104 -51 -104 -88 0 -11
60 -185 134 -386 l133 -365 216 -215 215 -215 27 -80 c43 -126 139 -319 222
-445 55 -83 109 -147 194 -232 98 -97 119 -123 125 -155 17 -100 56 -247 74
-283 27 -52 88 -96 155 -110 35 -7 202 -10 501 -8 l449 3 45 25 c62 35 104 95
124 177 10 44 39 381 82 963 l65 895 379 887 c209 488 380 897 380 909 0 50
-139 141 -259 169 -124 29 -258 -11 -352 -106 -44 -45 -73 -93 -175 -296 -94
-187 -121 -234 -118 -203 3 22 29 334 59 693 38 452 52 659 45 672 -16 31 -62
58 -146 86 -194 65 -359 -8 -452 -200 -42 -88 -67 -194 -98 -423 -16 -112 -31
-197 -35 -190 -4 6 -30 92 -59 190 -137 478 -263 810 -322 851 -24 17 -90 20
-151 5z m100 -235 c99 -231 275 -823 454 -1529 79 -312 91 -353 115 -373 49
-43 124 -7 124 59 0 26 -38 182 -126 519 l-25 95 56 395 c57 409 79 516 120
586 33 57 87 102 132 110 34 6 138 -8 151 -21 3 -3 -34 -480 -83 -1061 -81
-958 -88 -1058 -74 -1082 20 -36 59 -49 97 -33 17 7 34 20 38 29 4 10 15 100
24 202 l17 185 203 405 c111 223 216 422 231 442 38 47 102 78 162 78 44 0
151 -33 161 -49 3 -4 -161 -394 -363 -867 l-368 -860 -67 -910 c-37 -500 -71
-927 -76 -949 -5 -22 -21 -50 -35 -63 l-27 -23 -444 3 c-428 3 -444 4 -463 23
-14 14 -29 64 -51 170 -30 148 -46 205 -59 205 -15 0 -156 132 -208 195 -121
146 -238 360 -304 555 l-32 95 -214 210 -214 210 -110 300 c-60 164 -109 304
-109 311 0 14 55 24 140 24 145 0 267 -111 311 -283 6 -25 19 -53 29 -62 10
-9 116 -48 236 -86 193 -61 219 -67 243 -56 29 13 328 408 338 444 7 31 -171
512 -198 536 -27 22 -52 22 -117 -3 -104 -40 -224 -23 -344 50 -37 22 -75 40
-85 40 -33 0 -63 -30 -98 -100 -66 -131 -144 -189 -265 -198 -59 -4 -170 12
-170 24 0 2 84 140 187 307 102 166 187 303 187 304 1 1 701 59 800 65 l40 3
141 -352 c77 -193 149 -361 159 -372 20 -22 65 -28 95 -11 10 5 24 23 31 39
11 28 2 54 -139 408 -83 208 -151 385 -151 393 0 7 -52 250 -116 539 -111 505
-116 530 -111 617 5 106 30 170 81 208 32 24 84 46 100 42 5 -1 25 -38 43 -82z
m-687 -2073 c58 -23 79 -25 196 -26 l131 0 61 -164 61 -165 -111 -150 c-61
-83 -112 -153 -114 -154 -1 -2 -70 17 -152 43 l-150 48 -21 57 c-43 119 -142
236 -235 282 l-45 22 70 33 c75 37 161 115 194 177 14 25 24 34 35 30 8 -4 44
-18 80 -33z"/>
<path d="M505 3535 c-27 -26 -33 -71 -12 -98 6 -9 145 -111 307 -227 215 -153
303 -210 323 -210 57 0 98 78 65 123 -7 9 -146 111 -308 227 -316 225 -329
232 -375 185z"/>
<path d="M265 2735 c-16 -15 -25 -36 -25 -55 0 -19 9 -40 25 -55 l24 -25 331
0 331 0 24 25 c33 32 33 78 0 110 l-24 25 -331 0 -331 0 -24 -25z"/>
<path d="M800 2110 c-162 -116 -301 -218 -307 -227 -34 -45 7 -123 64 -123 20
0 108 57 323 210 162 116 301 218 308 227 33 45 -8 123 -65 123 -21 0 -108
-57 -323 -210z"/>
</g>
</svg>
