<?xml version="1.0" standalone="no"?>
<!DOCTYPE svg PUBLIC "-//W3C//DTD SVG 20010904//EN"
 "http://www.w3.org/TR/2001/REC-SVG-20010904/DTD/svg10.dtd">
<svg version="1.0" xmlns="http://www.w3.org/2000/svg"
 width="320.000000pt" height="340.000000pt" viewBox="0 0 320.000000 340.000000"
 preserveAspectRatio="xMidYMid meet">

<g transform="translate(0.000000,340.000000) scale(0.100000,-0.100000)"
fill="#9e9e9e" stroke="none">
<path d="M995 3293 c-51 -13 -95 -82 -95 -152 0 -22 -4 -42 -9 -45 -5 -3 -152
-44 -327 -91 -176 -47 -335 -91 -354 -97 -45 -14 -87 -53 -100 -94 -13 -37 2
-101 145 -629 41 -153 75 -286 75 -295 0 -9 -16 -31 -35 -50 -19 -18 -44 -53
-55 -77 -20 -44 -21 -54 -18 -761 3 -704 3 -718 24 -762 23 -50 70 -95 121
-117 27 -11 251 -13 1248 -13 1181 0 1217 1 1254 19 50 26 107 91 121 138 8
27 11 243 8 758 l-3 720 -27 46 c-15 25 -43 58 -63 73 -29 23 -34 32 -29 54 3
15 43 169 89 342 137 518 137 519 125 553 -26 75 -42 82 -512 208 l-278 74 0
42 c0 57 -25 118 -58 140 -25 17 -66 18 -627 19 -330 1 -609 0 -620 -3z m1188
-102 c9 -9 13 -156 15 -646 l2 -635 -50 0 -50 0 0 527 c0 476 -2 528 -17 545
-9 10 -23 18 -32 18 -23 1 -51 24 -51 42 0 9 -9 26 -19 39 l-19 24 -309 3
c-169 2 -335 -1 -368 -5 -54 -7 -62 -11 -76 -40 -23 -45 -39 -63 -57 -63 -8 0
-24 -7 -34 -17 -17 -15 -18 -45 -18 -545 l0 -528 -50 0 -50 0 0 628 c0 487 3
632 13 645 14 20 173 25 780 22 286 -1 380 -4 390 -14z m-232 -232 l49 -50 0
-500 0 -499 -120 0 c-108 0 -145 8 -106 23 8 3 25 24 38 46 15 27 31 41 50 45
51 10 44 66 -8 66 -17 0 -28 10 -40 35 -25 53 -58 75 -115 75 -70 0 -114 -40
-129 -118 -16 -80 -33 -102 -75 -102 -40 0 -65 29 -65 75 0 41 23 71 66 85 28
9 34 17 32 33 -2 17 -11 23 -39 25 -41 3 -89 -30 -115 -79 -8 -16 -22 -29 -32
-29 -21 0 -42 -19 -42 -38 0 -7 15 -19 34 -27 19 -8 37 -23 41 -34 3 -11 22
-34 41 -50 l35 -31 -126 0 -125 0 0 499 0 499 48 51 47 51 304 0 304 0 48 -51z
m-1051 -21 l0 -53 -200 -53 c-256 -67 -270 -72 -270 -111 0 -43 -9 -60 -42
-77 -29 -15 -30 -18 -25 -64 3 -26 42 -184 86 -351 45 -167 81 -307 81 -311 0
-4 -22 -8 -48 -8 l-48 0 -74 273 c-151 562 -161 601 -147 613 6 6 111 39 232
72 267 74 437 120 448 121 4 1 7 -23 7 -51z m1755 -43 c176 -48 326 -92 333
-99 12 -12 3 -51 -179 -723 l-44 -163 -47 0 c-27 0 -48 4 -48 8 0 4 36 144 81
311 44 167 83 325 86 351 5 46 4 49 -25 64 -33 17 -42 34 -42 77 0 39 -14 45
-270 112 l-200 52 0 53 c0 46 2 53 18 48 9 -3 161 -44 337 -91z m-1755 -169
l0 -53 -39 -7 c-66 -10 -103 -86 -71 -147 12 -22 61 -49 90 -49 20 0 20 -4 20
-280 l0 -281 -132 3 -131 3 -88 330 c-72 274 -85 333 -74 345 7 8 21 33 31 55
l19 40 170 47 c94 26 178 47 188 47 14 1 17 -8 17 -53z m1593 8 c172 -46 197
-56 197 -79 0 -7 10 -28 23 -47 l24 -34 -82 -304 c-45 -168 -85 -317 -89 -332
l-6 -28 -130 0 -130 0 0 280 c0 276 0 280 21 280 11 0 30 5 42 11 87 45 71
170 -24 185 l-39 7 0 53 c0 31 4 54 11 54 5 0 87 -21 182 -46z m-741 -621 c22
-19 24 -81 4 -108 -8 -11 -29 -24 -47 -31 -27 -9 -34 -16 -34 -38 1 -25 -1
-26 -62 -26 l-64 0 35 35 c26 25 37 49 46 92 7 32 16 66 21 76 13 22 76 23
101 0z m1086 -325 c54 -38 57 -48 61 -270 l3 -208 -478 0 -479 0 -72 -72 -73
-72 0 -206 0 -206 73 -72 72 -72 478 0 477 0 0 -137 c0 -155 -9 -199 -46 -234
l-26 -24 -1220 0 -1220 0 -28 32 c-25 28 -29 40 -35 135 -4 56 -5 380 -3 718
3 566 4 618 21 648 10 17 19 32 20 32 1 0 20 7 42 15 34 13 204 14 1225 12
1085 -2 1187 -3 1208 -19z m57 -600 c3 -13 4 -124 3 -248 l-3 -225 -453 -3
-452 -2 -45 41 -45 42 0 165 0 166 42 43 42 43 453 0 453 0 5 -22z"/>
<path d="M1537 2880 c-34 -27 -44 -78 -23 -118 20 -38 44 -52 88 -52 42 0 72
20 88 59 37 91 -75 172 -153 111z"/>
<path d="M2074 1074 c-35 -17 -74 -79 -74 -118 0 -149 205 -196 269 -62 26 52
26 60 1 113 -33 75 -121 104 -196 67z m106 -103 c14 -27 13 -28 -14 -46 -43
-29 -89 18 -54 53 18 18 56 14 68 -7z"/>
</g>
</svg>
