<?xml version="1.0" standalone="no"?>
<!DOCTYPE svg PUBLIC "-//W3C//DTD SVG 20010904//EN"
 "http://www.w3.org/TR/2001/REC-SVG-20010904/DTD/svg10.dtd">
<svg version="1.0" xmlns="http://www.w3.org/2000/svg"
 width="512.000000pt" height="512.000000pt" viewBox="0 0 512.000000 512.000000"
 preserveAspectRatio="xMidYMid meet">

<g transform="translate(0.000000,512.000000) scale(0.100000,-0.100000)"
fill="#9e9e9e" stroke="none">
<path d="M2185 4935 c-23 -22 -25 -32 -25 -107 l0 -83 -88 -28 c-48 -15 -127
-48 -177 -72 l-90 -45 -57 57 c-97 96 -84 102 -375 -190 -292 -291 -286 -278
-190 -375 l57 -57 -45 -90 c-24 -50 -57 -129 -72 -177 l-28 -88 -83 0 c-75 0
-85 -2 -107 -25 l-25 -24 0 -351 0 -351 25 -24 c22 -23 32 -25 107 -25 l83 -1
29 -90 c17 -49 49 -129 73 -177 l43 -87 -57 -57 c-96 -97 -102 -84 190 -375
291 -292 278 -286 375 -190 l57 57 90 -45 c50 -24 129 -57 177 -72 l88 -28 0
-83 c0 -75 2 -85 25 -107 l24 -25 351 0 351 0 24 25 c23 22 25 33 25 107 l1
83 87 29 c48 15 127 48 177 72 l90 44 57 -57 c97 -96 84 -102 375 190 292 291
286 278 190 375 l-57 57 44 90 c24 50 57 129 72 177 l29 87 83 1 c74 0 85 2
107 25 l25 24 0 351 0 351 -25 24 c-22 23 -32 25 -107 25 l-83 0 -28 88 c-15
48 -48 127 -72 177 l-45 90 57 57 c96 97 102 84 -190 375 -291 292 -278 286
-375 190 l-57 -57 -87 43 c-48 24 -128 56 -177 73 l-90 29 -1 83 c0 75 -2 85
-25 107 l-24 25 -351 0 -351 0 -24 -25z m615 -204 c0 -95 16 -113 135 -147
106 -30 227 -81 308 -129 80 -48 104 -46 169 14 l53 50 167 -166 167 -167 -50
-54 c-61 -67 -62 -88 -10 -179 53 -90 95 -191 126 -299 33 -118 51 -134 146
-134 l69 0 0 -240 0 -240 -65 0 c-109 0 -111 -2 -159 -162 -30 -100 -71 -193
-121 -279 -48 -82 -46 -106 14 -171 l50 -53 -166 -167 -167 -167 -54 50 c-67
61 -88 62 -179 10 -90 -53 -191 -95 -299 -126 -118 -33 -134 -51 -134 -146 l0
-69 -240 0 -240 0 0 69 c0 95 -16 113 -134 146 -108 31 -209 73 -299 126 -91
52 -112 51 -179 -10 l-54 -50 -167 167 -166 167 50 53 c61 66 62 87 10 179
-53 90 -95 191 -126 299 -33 118 -51 134 -146 134 l-69 0 0 240 0 240 69 0
c95 0 113 16 146 134 31 108 73 209 126 299 52 92 51 113 -10 179 l-50 53 166
167 167 167 54 -50 c67 -61 88 -62 179 -10 90 53 191 95 299 126 118 33 134
51 134 146 l0 69 240 0 240 0 0 -69z"/>
<path d="M2380 4385 c-351 -56 -660 -285 -824 -612 -213 -425 -126 -942 214
-1283 439 -438 1141 -438 1580 0 438 439 438 1141 0 1580 -257 257 -610 371
-970 315z m411 -174 c179 -46 319 -127 449 -260 129 -130 212 -278 257 -457
24 -95 24 -333 0 -428 -46 -185 -125 -324 -262 -461 -137 -137 -276 -216 -461
-262 -98 -24 -324 -24 -424 0 -364 88 -636 359 -727 723 -24 95 -24 333 0 428
46 182 128 328 261 462 158 157 305 231 556 278 59 11 277 -3 351 -23z"/>
<path d="M1920 3631 l0 -209 -30 -12 c-68 -28 -130 -129 -130 -210 0 -81 62
-182 130 -210 l30 -12 0 -89 0 -89 80 0 80 0 0 89 0 89 30 12 c68 28 130 129
130 210 0 81 -62 182 -130 210 l-30 12 0 209 0 209 -80 0 -80 0 0 -209z m135
-376 c50 -49 15 -135 -55 -135 -41 0 -80 39 -80 80 0 41 39 80 80 80 19 0 40
-9 55 -25z"/>
<path d="M2480 3751 l0 -89 -30 -12 c-68 -28 -130 -129 -130 -210 0 -81 62
-182 130 -210 l30 -12 0 -209 0 -209 80 0 80 0 0 209 0 209 30 12 c68 28 130
129 130 210 0 81 -62 182 -130 210 l-30 12 0 89 0 89 -80 0 -80 0 0 -89z m135
-256 c16 -15 25 -36 25 -55 0 -19 -9 -40 -25 -55 -49 -50 -135 -15 -135 55 0
41 39 80 80 80 19 0 40 -9 55 -25z"/>
<path d="M3040 3631 l0 -209 -30 -12 c-68 -28 -130 -129 -130 -210 0 -81 62
-182 130 -210 l30 -12 0 -89 0 -89 80 0 80 0 0 89 0 89 30 12 c68 28 130 129
130 210 0 81 -62 182 -130 210 l-30 12 0 209 0 209 -80 0 -80 0 0 -209z m135
-376 c16 -15 25 -36 25 -55 0 -19 -9 -40 -25 -55 -15 -16 -36 -25 -55 -25 -19
0 -40 9 -55 25 -16 15 -25 36 -25 55 0 19 9 40 25 55 15 16 36 25 55 25 19 0
40 -9 55 -25z"/>
<path d="M565 2231 c-92 -24 -173 -91 -215 -176 -19 -40 -24 -67 -24 -130 -1
-71 3 -88 30 -142 l30 -62 -47 -31 c-63 -41 -106 -91 -143 -170 l-31 -65 -3
-257 c-2 -175 0 -263 8 -277 6 -12 42 -37 80 -56 l70 -35 0 -311 0 -310 25
-24 24 -25 271 0 271 0 24 25 25 24 0 310 0 311 70 35 c38 19 74 44 80 56 8
14 10 102 8 277 -3 257 -3 257 -31 316 -36 77 -85 137 -145 176 l-48 31 30 62
c27 54 31 72 31 142 -1 71 -4 87 -35 143 -37 70 -69 101 -142 138 -54 27 -159
40 -213 25z m138 -165 c103 -43 128 -177 48 -257 -65 -65 -157 -65 -222 0
-124 123 13 325 174 257z m91 -478 c55 -16 138 -99 154 -154 8 -26 12 -112 12
-233 l0 -191 -70 -35 c-38 -19 -74 -44 -80 -54 -6 -12 -10 -128 -10 -310 l0
-291 -160 0 -160 0 0 291 c0 182 -4 298 -10 310 -6 10 -42 35 -80 54 l-70 35
0 191 c0 121 4 207 12 233 15 51 99 137 148 153 48 15 263 16 314 1z"/>
<path d="M4405 2231 c-92 -24 -173 -91 -215 -176 -19 -40 -24 -67 -24 -130 -1
-71 3 -88 30 -142 l30 -62 -47 -31 c-63 -41 -106 -91 -143 -170 l-31 -65 -3
-257 c-2 -175 0 -263 8 -277 6 -12 42 -37 80 -56 l70 -35 0 -311 0 -310 25
-24 24 -25 271 0 271 0 24 25 25 24 0 310 0 311 70 35 c38 19 74 44 80 56 8
14 10 102 8 277 -3 257 -3 257 -31 316 -36 77 -85 137 -145 176 l-48 31 30 62
c27 54 31 71 30 142 -1 127 -54 215 -163 274 -65 34 -164 49 -226 32z m138
-165 c104 -43 128 -175 47 -256 -66 -66 -156 -67 -221 -1 -124 123 13 325 174
257z m91 -478 c55 -16 138 -99 154 -154 8 -26 12 -112 12 -233 l0 -191 -70
-35 c-38 -19 -74 -44 -80 -54 -6 -12 -10 -128 -10 -310 l0 -291 -160 0 -160 0
0 291 c0 182 -4 298 -10 310 -6 10 -42 35 -80 54 l-70 35 0 191 c0 121 4 207
12 233 15 51 99 137 148 153 48 15 263 16 314 1z"/>
<path d="M2480 1360 l0 -80 80 0 80 0 0 80 0 80 -80 0 -80 0 0 -80z"/>
<path d="M2480 1040 l0 -80 80 0 80 0 0 80 0 80 -80 0 -80 0 0 -80z"/>
<path d="M1515 907 c-171 -104 -222 -139 -229 -160 -21 -58 -5 -72 229 -214
139 -84 230 -132 248 -133 17 0 38 10 52 25 23 22 25 32 25 120 l0 95 80 0 80
0 0 80 0 80 -80 0 -80 0 0 95 c0 88 -2 98 -25 120 -14 15 -35 25 -52 25 -18
-1 -109 -49 -248 -133z m165 -187 l0 -99 -80 47 c-44 26 -80 49 -80 52 0 4
144 94 158 99 1 1 2 -44 2 -99z"/>
<path d="M3305 1015 c-23 -22 -25 -32 -25 -120 l0 -95 -80 0 -80 0 0 -80 0
-80 80 0 80 0 0 -95 c0 -88 2 -98 25 -120 14 -15 35 -25 52 -25 18 1 109 49
248 133 316 191 316 183 0 374 -139 84 -230 132 -248 133 -17 0 -38 -10 -52
-25z m295 -295 c0 -3 -36 -26 -80 -52 l-80 -47 0 99 0 99 80 -47 c44 -26 80
-49 80 -52z"/>
<path d="M2160 720 l0 -80 80 0 80 0 0 80 0 80 -80 0 -80 0 0 -80z"/>
<path d="M2480 720 l0 -80 80 0 80 0 0 80 0 80 -80 0 -80 0 0 -80z"/>
<path d="M2800 720 l0 -80 80 0 80 0 0 80 0 80 -80 0 -80 0 0 -80z"/>
</g>
</svg>
