<?xml version="1.0" standalone="no"?>
<!DOCTYPE svg PUBLIC "-//W3C//DTD SVG 20010904//EN"
 "http://www.w3.org/TR/2001/REC-SVG-20010904/DTD/svg10.dtd">
<svg version="1.0" xmlns="http://www.w3.org/2000/svg"
 width="200.000000pt" height="200.000000pt" viewBox="0 0 200.000000 200.000000"
 preserveAspectRatio="xMidYMid meet">

<g transform="translate(0.000000,200.000000) scale(0.100000,-0.100000)"
fill="#9e9e9e" stroke="none">
<path d="M1100 1913 c-8 -3 -28 -17 -43 -29 -35 -30 -85 -31 -120 -4 -14 11
-39 23 -56 26 -31 7 -46 -4 -108 -80 -20 -24 -27 -26 -88 -24 -62 3 -68 1 -91
-25 -16 -19 -24 -40 -24 -65 0 -49 -21 -78 -68 -92 -20 -7 -48 -22 -60 -34
-25 -22 -25 -20 -6 -137 5 -31 1 -41 -35 -83 -56 -64 -54 -91 10 -155 33 -33
33 -31 13 -144 -8 -50 14 -83 65 -97 47 -12 81 -51 81 -92 0 -36 24 -83 46
-92 9 -3 45 -3 79 0 l63 7 36 -51 c52 -72 79 -78 152 -36 49 29 79 27 122 -7
36 -28 89 -25 115 7 68 83 71 84 134 78 53 -6 60 -4 82 19 15 16 25 43 28 71
7 54 30 82 83 96 50 14 75 48 66 92 -21 110 -20 113 17 154 19 22 37 49 41 61
8 26 -11 68 -48 102 -29 27 -33 61 -15 122 18 58 -1 94 -60 115 -63 23 -72 34
-82 96 -12 77 -44 102 -116 93 -49 -6 -55 -5 -81 22 -15 16 -36 41 -47 55 -20
28 -58 41 -85 31z m-14 -288 c17 -27 16 -59 -7 -157 -7 -32 -11 -60 -8 -62 3
-3 32 -1 66 5 64 11 135 0 150 -24 23 -37 16 -216 -10 -245 -9 -10 -17 -30
-17 -45 0 -59 -76 -83 -226 -72 -107 8 -127 19 -149 80 l-14 40 -1 -43 c0 -72
-11 -82 -85 -82 -89 0 -95 10 -95 160 0 153 6 162 100 159 l68 -2 41 47 c47
54 111 183 111 224 0 35 6 42 36 42 14 0 30 -10 40 -25z"/>
<path d="M545 633 c-59 -140 -135 -332 -135 -342 0 -7 25 -55 56 -107 46 -78
59 -94 80 -94 37 0 197 41 211 54 11 10 150 329 167 384 7 21 4 22 -41 22 -26
0 -68 9 -92 21 -25 11 -47 16 -51 12 -4 -4 -42 -95 -85 -200 -43 -106 -81
-190 -86 -188 -13 9 -69 111 -69 128 0 8 29 86 65 173 35 87 64 159 62 160 -1
1 -16 5 -34 9 -30 6 -33 4 -48 -32z"/>
<path d="M1380 659 c-19 -4 -43 -6 -52 -3 -17 5 -67 -39 -68 -59 0 -5 36 -96
80 -203 44 -106 80 -198 80 -203 0 -10 -128 23 -141 36 -4 5 -36 78 -72 163
l-64 155 -36 3 c-21 2 -37 1 -37 -3 0 -15 162 -391 173 -401 14 -13 174 -54
211 -54 21 0 34 16 80 94 31 52 56 99 56 104 0 5 -32 87 -71 183 -39 96 -73
180 -76 187 -6 13 -13 14 -63 1z"/>
</g>
</svg>
