<?xml version="1.0" standalone="no"?>
<!DOCTYPE svg PUBLIC "-//W3C//DTD SVG 20010904//EN"
 "http://www.w3.org/TR/2001/REC-SVG-20010904/DTD/svg10.dtd">
<svg version="1.0" xmlns="http://www.w3.org/2000/svg"
 width="200.000000pt" height="200.000000pt" viewBox="0 0 200.000000 200.000000"
 preserveAspectRatio="xMidYMid meet">

<g transform="translate(0.000000,200.000000) scale(0.100000,-0.100000)"
fill="#9e9e9e" stroke="none">
<path d="M560 1872 c-125 -62 -97 -256 40 -278 l36 -6 51 -154 51 -154 -22
-17 c-81 -64 -77 -191 7 -244 46 -29 136 -23 173 12 39 37 56 76 53 126 l-3
45 188 99 c103 54 191 99 196 99 5 0 25 -10 45 -21 123 -73 272 84 193 201
-37 54 -72 74 -128 74 -41 0 -56 -6 -89 -32 l-40 -32 -270 71 -269 72 -5 34
c-8 48 -41 88 -87 107 -52 20 -77 20 -120 -2z m109 -46 c69 -36 64 -146 -8
-176 -65 -26 -131 19 -131 89 0 78 70 122 139 87z m318 -201 c114 -31 231 -62
258 -70 l50 -14 2 -48 1 -48 -191 -101 -192 -101 -27 20 c-15 11 -43 23 -64
26 l-36 6 -53 150 -52 149 41 43 c23 23 44 42 48 42 4 1 100 -24 215 -54z
m526 -56 c80 -87 -41 -210 -131 -134 -58 48 -46 131 21 161 42 18 76 10 110
-27z m-642 -358 c21 -22 29 -39 29 -66 0 -101 -147 -134 -185 -42 -18 43 -9
82 27 112 42 35 91 34 129 -4z"/>
<path d="M160 1820 c-19 -19 -20 -33 -20 -549 0 -506 1 -530 19 -552 l19 -24
291 -3 291 -3 0 -69 0 -69 -170 -3 -171 -3 -140 -141 -140 -141 3 -64 3 -64
852 -3 852 -2 7 35 c12 68 -1 94 -123 235 -64 74 -121 138 -127 142 -6 4 -96
8 -199 8 l-188 0 3 73 3 72 303 5 c330 5 316 3 327 65 3 17 5 257 3 533 l-3
504 -24 19 c-22 18 -46 19 -527 19 l-504 0 0 -25 0 -25 500 0 500 0 0 -520 0
-520 -805 0 -805 0 0 520 0 520 125 0 125 0 0 25 0 25 -130 0 c-117 0 -132 -2
-150 -20z m1010 -1270 l0 -140 -175 0 -175 0 0 140 0 140 175 0 175 0 0 -140z
m-408 -122 l3 -63 228 -3 227 -2 0 65 0 65 184 0 185 0 91 -105 91 -105 -773
0 -773 0 105 105 105 105 162 0 162 0 3 -62z m1038 -228 c0 -20 -7 -20 -805
-20 -798 0 -805 0 -805 20 0 20 7 20 805 20 798 0 805 0 805 -20z"/>
<path d="M240 1265 l0 -475 758 2 757 3 3 473 2 472 -380 0 -380 0 0 -25 0
-25 350 0 350 0 0 -420 0 -420 -705 0 -705 0 0 420 0 420 60 0 c57 0 60 1 60
25 0 25 -1 25 -85 25 l-85 0 0 -475z"/>
<path d="M411 1486 c-39 -47 -71 -87 -71 -90 0 -3 18 -6 40 -6 l40 0 0 -260 0
-260 70 0 70 0 0 259 0 260 40 3 39 3 -70 85 c-39 47 -75 86 -79 88 -4 1 -39
-35 -79 -82z m110 -44 c-8 -3 -11 -79 -11 -263 0 -252 -1 -259 -20 -259 -19 0
-20 7 -20 260 0 230 -2 260 -16 260 -12 0 -11 6 8 29 l23 30 24 -27 c14 -16
19 -28 12 -30z"/>
<path d="M1582 1073 c3 -176 3 -178 26 -181 l22 -3 0 180 0 181 -25 0 -25 0 2
-177z"/>
<path d="M1502 1053 c3 -155 3 -158 26 -161 l22 -3 0 160 0 161 -25 0 -26 0 3
-157z"/>
<path d="M1424 1177 c-2 -7 -3 -74 -2 -148 3 -130 4 -134 26 -137 22 -3 22 -3
22 147 0 145 -1 151 -20 151 -11 0 -23 -6 -26 -13z"/>
<path d="M1342 1028 c3 -129 4 -133 26 -136 22 -3 22 -3 22 132 l0 136 -25 0
-26 0 3 -132z"/>
<path d="M1262 1013 c3 -114 4 -118 26 -121 22 -3 22 -2 22 117 l0 121 -25 0
-26 0 3 -117z"/>
<path d="M1182 993 c3 -93 4 -98 26 -101 22 -3 22 -1 22 97 l0 101 -25 0 -26
0 3 -97z"/>
<path d="M1100 975 c0 -73 1 -75 25 -75 24 0 25 2 25 75 0 73 -1 75 -25 75
-24 0 -25 -2 -25 -75z"/>
<path d="M1022 948 c3 -46 6 -53 26 -56 21 -3 22 0 22 52 0 53 -1 56 -26 56
-24 0 -25 -2 -22 -52z"/>
</g>
</svg>
