<svg fill="#9e9e9e" height="512pt" viewBox="0 0 496 496" width="512pt" xmlns="http://www.w3.org/2000/svg"><path d="m392 320c-4.40625 0-8-3.585938-8-8h-16c0 10.414062 6.710938 19.214844 16 22.527344v9.472656h16v-9.472656c9.289062-3.3125 16-12.113282 16-22.527344 0-13.230469-10.769531-24-24-24-4.40625 0-8-3.585938-8-8s3.59375-8 8-8 8 3.585938 8 8h16c0-10.414062-6.710938-19.214844-16-22.527344v-9.472656h-16v9.472656c-9.289062 3.3125-16 12.113282-16 22.527344 0 13.230469 10.769531 24 24 24 4.40625 0 8 3.585938 8 8s-3.59375 8-8 8zm0 0"/><path d="m392 224c-16.089844 0-31.335938 5.238281-44.113281 15.167969l9.824219 12.640625c9.9375-7.730469 21.792968-11.808594 34.289062-11.808594 30.878906 0 56 25.128906 56 56 0 12.496094-4.078125 24.359375-11.800781 34.296875l12.632812 9.816406c9.921875-12.769531 15.167969-28.015625 15.167969-44.113281 0-39.703125-32.304688-72-72-72zm0 0"/><path d="m392 352c-30.878906 0-56-25.128906-56-56 0-12.496094 4.078125-24.359375 11.808594-34.289062l-12.632813-9.832032c-9.929687 12.769532-15.175781 28.023438-15.175781 44.121094 0 39.703125 32.304688 72 72 72 16.089844 0 31.335938-5.238281 44.113281-15.167969l-9.816406-12.640625c-9.9375 7.730469-21.800781 11.808594-34.296875 11.808594zm0 0"/><path d="m392 192c-39.753906 0-74.335938 22.441406-91.832031 55.304688-14.273438-33.394532-40.433594-59.703126-72.664063-74.375 7.40625-4.089844 12.496094-11.882813 12.496094-20.929688 0-7.816406-3.808594-14.695312-9.609375-19.078125l41.609375-41.609375v-24.257812l-29.273438-14.628907 7.585938-15.160156-34.3125-22.882813-22.144531 14.769532-21.855469-29.152344h-20v40h-45.769531l-5.726563 17.183594-9.191406-9.183594h-43.3125v35.3125l53.535156 53.535156c-3.40625 4.152344-5.535156 9.375-5.535156 15.152344 0 9.078125 5.128906 16.902344 12.59375 20.984375-49.816406 22.679687-84.59375 72.816406-84.59375 131.015625 0 25.832031-3.449219 51.558594-10.238281 76.496094l-11.738281 43.015625c-1.34375 4.921875-2.023438 10-2.023438 15.105469 0 31.640624 25.742188 57.382812 57.382812 57.382812h221.226563c31.648437 0 57.390625-25.742188 57.390625-57.382812 0-.496094-.089844-.984376-.097656-1.480469 17.378906 6.933593 36.273437 10.863281 56.097656 10.863281v-16c-21.351562 0-41.496094-5.089844-59.496094-13.894531l-10.257812-37.617188c-.839844-3.097656-1.460938-6.398437-2.207032-9.59375 18.695313 17.984375 44.03125 29.105469 71.960938 29.105469 57.34375 0 104-46.65625 104-104s-46.65625-104-104-104zm-328-128h20.6875l22.808594 22.816406 10.273437-30.816406h34.230469v40h16v-74.664062l22.144531 29.511718 25.855469-17.230468 13.6875 9.125-20.839844 41.683593 14.3125 7.160157 12.425782-24.851563 20.414062 10.210937v7.742188l-43.3125 43.3125h-19.625l6.875-55.007812-15.875-1.984376-7.125 56.992188h-34l-7.015625-49.136719-15.832031 2.265625 6.6875 46.871094h-6.777344c-1.457031 0-2.871094.183594-4.257812.433594l-51.742188-51.746094zm56 96c-4.40625 0-8-3.585938-8-8s3.59375-8 8-8h96c4.40625 0 8 3.585938 8 8s-3.59375 8-8 8zm128 124.6875-29.65625 29.65625 11.3125 11.3125 11.527344-11.527344c5.929687 49.582032 35.738281 91.902344 77.640625 115.023438.734375 3.105468 1.175781 6.273437 1.175781 9.464844 0 22.824218-18.566406 41.382812-41.382812 41.382812h-221.234376c-22.816406 0-41.382812-18.558594-41.382812-41.382812 0-3.679688.496094-7.34375 1.464844-10.898438l11.734375-43.023438c7.160156-26.296874 10.800781-53.449218 10.800781-80.695312 0-70.574219 57.425781-128 128-128 57.726562 0 108.152344 38.640625 123.328125 94.222656-.054687.210938-.0625.410156-.121094.617188-.902343 3.632812-1.621093 7.328125-2.136719 11.097656-.078124.574219-.191406 1.160156-.261718 1.734375-.488282 4.054687-.808594 8.152344-.808594 12.328125 0 3.785156.230469 7.519531.625 11.199219.101562.984375.3125 1.960937.445312 2.9375.378907 2.757812.808594 5.496093 1.402344 8.183593.207032.925782.480469 1.832032.710938 2.75.703125 2.824219 1.496094 5.609376 2.425781 8.335938.238281.699219.503906 1.386719.757813 2.082031 1.089843 2.992188 2.304687 5.910157 3.65625 8.769531.128906.269532.214843.558594.351562.839844 1.847656 15.183594 4.679688 29.847656 8.433594 43.597656l5.878906 21.550782c-28.824219-20.789063-49.128906-52.535156-54.871094-89.125l8.535156 8.535156 11.3125-11.3125zm144 99.3125c-34.585938 0-64.488281-20.105469-78.863281-49.199219-1.335938-2.703125-2.503907-5.457031-3.550781-8.242187-.1875-.503906-.378907-1.007813-.5625-1.519532-.871094-2.453124-1.589844-4.941406-2.238282-7.453124-.191406-.761719-.417968-1.515626-.59375-2.289063-.535156-2.359375-.917968-4.753906-1.261718-7.144531-.121094-.839844-.289063-1.65625-.386719-2.503906-.335938-3.183594-.542969-6.402344-.542969-9.648438 0-3.6875.289062-7.414062.792969-11.160156.0625-.503906.160156-1.007813.230469-1.511719.542968-3.617187 1.273437-7.25 2.273437-10.863281.023437-.097656.046875-.191406.070313-.289063l.519531-1.863281-.015625-.074219c11.03125-35.992187 44.570312-62.238281 84.128906-62.238281 48.519531 0 88 39.480469 88 88s-39.480469 88-88 88zm0 0"/><path d="m153.214844 209.136719c4.882812-.753907 9.847656-1.136719 14.785156-1.136719v-16c-5.753906 0-11.542969.449219-17.214844 1.320312zm0 0"/><path d="m56 304c0 28.65625-3.824219 57.222656-11.367188 84.910156l15.4375 4.203125c7.914063-29.050781 11.929688-59.035156 11.929688-89.113281 0-41.761719 26.710938-78.472656 66.464844-91.351562l-4.929688-15.214844c-46.375 15.023437-77.535156 57.847656-77.535156 106.566406zm0 0"/><path d="m408 432h16v16h-16zm0 0"/><path d="m440 432h16v16h-16zm0 0"/><path d="m480 80h16v16h-16zm0 0"/><path d="m448 80h16v16h-16zm0 0"/><path d="m304 80h128v16h-128zm0 0"/><path d="m480 112h16v16h-16zm0 0"/><path d="m448 112h16v16h-16zm0 0"/><path d="m304 112h128v16h-128zm0 0"/><path d="m480 144h16v16h-16zm0 0"/><path d="m448 144h16v16h-16zm0 0"/><path d="m304 144h128v16h-128zm0 0"/></svg>