<?xml version="1.0" standalone="no"?>
<!DOCTYPE svg PUBLIC "-//W3C//DTD SVG 20010904//EN"
 "http://www.w3.org/TR/2001/REC-SVG-20010904/DTD/svg10.dtd">
<svg version="1.0" xmlns="http://www.w3.org/2000/svg"
 width="512.000000pt" height="512.000000pt" viewBox="0 0 225.000000 225.000000"
 preserveAspectRatio="xMidYMid meet">

<g transform="translate(0.000000,225.000000) scale(0.100000,-0.100000)"
fill="#9e9e9e" stroke="none">
<path d="M580 2230 c-26 -26 -25 -32 5 -68 14 -17 25 -36 25 -42 0 -7 -18 -28
-39 -47 -54 -46 -68 -91 -46 -148 21 -57 74 -93 111 -76 33 15 32 57 -3 93
l-26 28 51 49 c50 47 52 52 52 102 0 46 -4 55 -39 90 -44 44 -62 48 -91 19z"/>
<path d="M1608 2239 c-27 -15 -22 -59 9 -91 l27 -28 -52 -48 c-50 -46 -52 -50
-52 -101 0 -49 3 -57 39 -92 44 -44 62 -48 91 -19 26 26 25 32 -5 68 -14 17
-25 36 -25 42 0 7 18 28 39 47 55 46 68 91 46 150 -11 28 -29 52 -49 64 -35
21 -44 23 -68 8z"/>
<path d="M278 1779 c-16 -9 -18 -32 -18 -242 0 -246 2 -257 46 -257 47 0 54
29 54 227 l0 183 255 0 254 0 3 -447 c3 -439 3 -449 25 -489 26 -49 83 -101
132 -121 46 -20 146 -19 192 1 52 22 95 61 127 115 25 43 27 55 30 183 l4 137
190 3 c174 3 191 5 204 22 18 25 18 37 0 62 -13 18 -30 19 -228 22 -159 2
-219 -1 -238 -11 -25 -12 -25 -14 -30 -182 -5 -158 -7 -172 -28 -203 -30 -42
-74 -64 -127 -64 -53 0 -97 22 -127 64 l-23 33 -3 470 c-2 417 -4 471 -19 487
-15 17 -41 18 -337 18 -199 0 -328 -4 -338 -11z"/>
<path d="M1297 1772 c-15 -16 -17 -48 -17 -240 0 -235 3 -252 50 -252 46 0 50
20 50 221 l0 189 256 0 255 0 -3 -487 -3 -488 -31 -88 c-90 -249 -279 -427
-530 -499 -62 -17 -104 -22 -199 -22 -144 0 -213 16 -340 78 -190 94 -320 245
-391 451 -25 73 -28 96 -32 257 l-4 177 190 3 c204 3 215 6 215 53 0 48 -10
50 -239 53 -187 3 -219 1 -241 -13 l-25 -17 5 -221 c3 -167 9 -237 21 -282 29
-102 110 -254 178 -334 408 -481 1170 -384 1443 183 81 168 78 145 82 741 4
494 3 530 -13 542 -14 10 -95 13 -339 13 -299 0 -323 -1 -338 -18z"/>
<path d="M1602 1568 c-7 -7 -12 -29 -12 -50 0 -38 0 -38 -39 -38 -30 0 -44 -6
-55 -22 -20 -29 -20 -34 4 -58 12 -12 33 -20 55 -20 34 0 35 -1 35 -38 0 -43
14 -62 46 -62 28 0 54 35 54 72 0 25 4 28 33 28 36 0 67 25 67 53 0 26 -29 47
-64 47 -31 0 -34 2 -39 41 -3 23 -11 46 -19 50 -19 12 -52 11 -66 -3z"/>
<path d="M476 1464 c-21 -21 -20 -47 2 -67 15 -14 41 -17 135 -17 104 0 119 2
137 20 24 24 24 29 4 58 -14 21 -22 22 -139 22 -99 0 -127 -3 -139 -16z"/>
</g>
</svg>
