<?xml version="1.0" standalone="no"?>
<!DOCTYPE svg PUBLIC "-//W3C//DTD SVG 20010904//EN"
 "http://www.w3.org/TR/2001/REC-SVG-20010904/DTD/svg10.dtd">
<svg version="1.0" xmlns="http://www.w3.org/2000/svg"
 width="512.000000pt" height="512.000000pt" viewBox="0 0 820.000000 860.000000"
 preserveAspectRatio="xMidYMid meet">

<g transform="translate(0.000000,860.000000) scale(0.100000,-0.100000)"
fill="#9e9e9e" stroke="none">
<path d="M3830 8184 c-559 -47 -1035 -177 -1505 -412 -1174 -585 -1988 -1709
-2174 -2997 -64 -443 -51 -941 35 -1365 137 -676 445 -1303 895 -1825 102
-118 332 -346 443 -440 625 -526 1372 -842 2196 -927 162 -17 619 -17 780 0
1202 126 2268 771 2934 1776 414 623 632 1308 663 2081 7 182 -3 231 -58 298
-69 84 -200 114 -299 70 -57 -25 -125 -99 -139 -150 -6 -21 -15 -130 -21 -243
-32 -632 -199 -1172 -522 -1694 -227 -367 -569 -730 -935 -994 -215 -154 -532
-324 -787 -421 -612 -232 -1286 -286 -1929 -155 -1264 257 -2290 1206 -2648
2449 -94 326 -132 607 -132 960 0 575 123 1088 382 1590 440 855 1211 1489
2130 1755 322 93 615 134 961 134 589 -1 1082 -120 1614 -392 162 -83 172 -86
235 -86 147 0 251 106 251 256 -1 121 -49 183 -212 268 -462 243 -899 380
-1428 446 -109 14 -628 27 -730 18z"/>
<path d="M5707 6543 c-4 -3 -7 -12 -7 -19 0 -7 147 -147 326 -310 263 -240
323 -299 312 -309 -7 -7 -179 -145 -383 -307 -203 -162 -592 -470 -862 -686
l-493 -392 -590 465 c-325 256 -595 465 -601 465 -11 0 -1870 -1417 -1881
-1434 -12 -17 -10 -594 2 -601 9 -6 187 129 1399 1054 261 199 480 360 487
357 8 -3 277 -213 599 -466 l585 -462 100 79 c54 43 527 419 1051 836 523 417
957 760 963 763 6 2 132 -106 280 -241 148 -135 274 -245 281 -245 34 0 35 13
35 726 0 386 -3 709 -6 718 -6 14 -85 16 -798 16 -436 0 -796 -3 -799 -7z"/>
<path d="M6308 4758 l-428 -341 0 -1073 c0 -590 3 -1080 6 -1089 17 -42 45
-45 429 -45 l367 0 29 29 29 29 0 1416 c0 779 -1 1416 -2 1416 -2 -1 -195
-154 -430 -342z"/>
<path d="M3188 4168 l-208 -160 0 -872 c1 -669 3 -875 13 -887 28 -37 48 -39
422 -39 l367 0 29 29 29 29 0 865 0 864 -212 166 c-117 92 -217 167 -223 166
-5 0 -103 -73 -217 -161z"/>
<path d="M4937 3668 l-337 -270 -83 66 -82 66 -3 -623 c-1 -342 0 -632 3 -644
12 -50 35 -53 430 -53 l367 0 29 29 29 29 0 836 c0 460 -3 836 -7 835 -5 0
-160 -122 -346 -271z"/>
<path d="M1953 3227 l-422 -322 -1 -318 0 -319 29 -29 29 -29 372 0 372 0 29
29 29 29 0 641 c0 353 -3 641 -7 640 -5 0 -198 -145 -430 -322z"/>
</g>
</svg>
