<?xml version="1.0" standalone="no"?>
<!DOCTYPE svg PUBLIC "-//W3C//DTD SVG 20010904//EN"
 "http://www.w3.org/TR/2001/REC-SVG-20010904/DTD/svg10.dtd">
<svg version="1.0" xmlns="http://www.w3.org/2000/svg"
 width="200.000000pt" height="200.000000pt" viewBox="0 0 512.000000 512.000000"
 preserveAspectRatio="xMidYMid meet">

<g transform="translate(0.000000,512.000000) scale(0.100000,-0.100000)"
fill="#9e9e9e" stroke="none">
<path d="M925 3783 c-150 -22 -267 -109 -332 -249 -25 -53 -28 -72 -31 -186
l-4 -127 -34 -7 c-46 -9 -58 -33 -51 -110 10 -103 48 -174 94 -174 13 0 23 -6
23 -14 0 -7 19 -51 41 -96 55 -109 141 -198 235 -242 94 -45 138 -44 236 5
115 56 204 162 262 310 10 24 21 37 34 37 48 0 92 96 92 200 0 63 -7 74 -59
85 l-33 7 6 67 c9 86 -6 187 -38 256 -43 96 -140 183 -241 218 -45 16 -154 27
-200 20z"/>
<path d="M2426 3763 c-80 -21 -161 -70 -223 -135 -97 -103 -128 -192 -127
-369 l1 -126 -41 -9 c-55 -12 -69 -40 -60 -124 12 -121 55 -200 110 -200 16 0
24 -10 32 -39 31 -100 131 -247 209 -304 107 -77 204 -111 274 -96 57 13 151
61 204 104 75 62 168 202 197 296 8 29 16 39 32 39 55 0 98 79 110 200 9 85
-5 112 -61 124 l-41 9 1 126 c1 185 -35 282 -143 385 -125 119 -303 164 -474
119z"/>
<path d="M4170 3754 c-249 -48 -442 -248 -481 -496 -15 -99 -6 -185 36 -318
42 -134 43 -167 9 -231 -31 -57 -29 -62 46 -103 60 -33 161 -63 240 -72 32 -3
63 -9 69 -13 8 -5 4 -28 -14 -80 -29 -86 -24 -138 25 -238 28 -56 135 -173
160 -173 25 0 132 117 160 173 49 100 54 152 25 238 -18 52 -22 75 -14 80 6 4
37 10 69 13 79 9 180 39 240 72 75 41 77 46 46 103 -35 64 -33 101 10 229 48
143 55 252 25 371 -65 257 -280 436 -536 446 -49 2 -101 1 -115 -1z"/>
<path d="M570 2431 c-194 -74 -398 -165 -423 -189 -21 -20 -40 -64 -76 -177
-84 -260 -87 -293 -34 -356 51 -60 37 -59 681 -59 l589 0 53 173 c29 94 62
190 73 211 36 73 106 129 226 182 61 26 111 51 111 55 0 7 -43 26 -279 120
-95 38 -179 69 -186 69 -6 0 -49 -113 -99 -262 -48 -145 -91 -267 -96 -271 -4
-5 -11 81 -15 191 l-7 199 33 64 c19 35 35 67 37 72 2 4 -11 -1 -30 -12 -68
-41 -205 -44 -280 -6 -17 8 -33 13 -36 11 -2 -3 12 -33 32 -68 l36 -64 -11
-194 c-6 -107 -12 -196 -13 -197 -2 -2 -43 117 -93 264 -57 169 -95 269 -104
270 -8 1 -48 -11 -89 -26z"/>
<path d="M3765 2350 c-162 -54 -209 -77 -248 -118 l-29 -30 23 -7 c46 -15 100
-59 142 -114 35 -47 52 -88 101 -244 l60 -187 571 0 571 0 53 26 c78 39 104
84 109 189 10 199 -47 336 -173 410 -54 32 -335 127 -335 114 0 -6 20 -34 45
-61 57 -63 80 -135 70 -215 l-7 -55 -26 25 c-43 39 -105 77 -127 77 -13 0 -30
-16 -50 -48 -75 -120 -213 -287 -247 -297 -14 -5 -29 1 -50 22 -48 45 -148
172 -201 255 -46 72 -50 76 -74 67 -31 -11 -78 -43 -115 -77 l-26 -24 -7 45
c-14 90 9 159 77 233 22 24 38 47 36 52 -1 5 -66 -12 -143 -38z"/>
<path d="M2105 2235 c-49 -18 -174 -67 -278 -110 -243 -101 -247 -105 -311
-306 -82 -261 -88 -291 -75 -345 16 -62 70 -117 132 -132 57 -15 1910 -17
1971 -2 48 11 84 36 113 80 46 67 43 90 -59 414 -58 184 -66 192 -318 295
-289 118 -360 143 -365 128 -3 -6 -43 -127 -90 -267 -91 -273 -124 -364 -125
-340 0 8 -5 109 -11 226 l-10 212 40 81 c23 44 41 82 41 84 0 2 -24 -8 -52
-22 -46 -22 -66 -26 -148 -26 -82 0 -102 4 -148 26 -28 14 -52 24 -52 22 0 -2
18 -40 41 -85 l41 -81 -11 -205 c-6 -112 -11 -214 -11 -226 -1 -30 -28 43
-127 339 -47 143 -88 263 -92 267 -3 3 -46 -9 -96 -27z"/>
</g>
</svg>
