<?xml version="1.0" standalone="no"?>
<!DOCTYPE svg PUBLIC "-//W3C//DTD SVG 20010904//EN"
 "http://www.w3.org/TR/2001/REC-SVG-20010904/DTD/svg10.dtd">
<svg version="1.0" xmlns="http://www.w3.org/2000/svg"
 width="512.000000pt" height="512.000000pt" viewBox="0 0 512.000000 512.000000"
 preserveAspectRatio="xMidYMid meet">

<g transform="translate(0.000000,512.000000) scale(0.100000,-0.100000)"
fill="#9e9e9e" stroke="none">
<path d="M567 4549 c-94 -22 -188 -104 -223 -194 -18 -48 -19 -94 -19 -1420
l0 -1370 24 -52 c29 -66 111 -143 176 -169 49 -19 99 -19 2015 -19 1916 0
1966 0 2015 19 65 26 147 103 176 169 l24 52 0 1370 c0 1329 -1 1372 -19 1420
-26 65 -103 147 -169 176 l-52 24 -1955 2 c-1117 0 -1971 -3 -1993 -8z m3954
-172 c18 -12 44 -38 56 -56 l23 -34 0 -1227 0 -1227 -23 -34 c-12 -18 -38 -44
-56 -56 l-34 -23 -1947 0 -1947 0 -34 23 c-18 12 -44 38 -56 56 l-23 34 0
1227 0 1227 23 34 c12 18 38 44 56 56 l34 23 1947 0 1947 0 34 -23z"/>
<path d="M3480 3020 l0 -860 160 0 160 0 0 860 0 860 -160 0 -160 0 0 -860z"/>
<path d="M1315 3774 c-143 -34 -309 -145 -399 -265 -106 -141 -150 -272 -150
-449 0 -172 39 -294 140 -437 45 -63 149 -163 170 -163 7 0 82 136 168 302
l156 301 0 364 c0 284 -3 363 -12 362 -7 0 -40 -7 -73 -15z"/>
<path d="M1560 3455 l0 -335 335 0 335 0 0 28 c0 49 -29 152 -64 225 -70 150
-193 275 -341 347 -84 41 -182 70 -234 70 l-31 0 0 -335z"/>
<path d="M3960 2780 l0 -620 160 0 160 0 0 620 0 620 -160 0 -160 0 0 -620z"/>
<path d="M2520 2640 l0 -480 160 0 160 0 0 480 0 480 -160 0 -160 0 0 -480z"/>
<path d="M1522 2943 c-242 -462 -293 -566 -281 -574 39 -24 161 -44 264 -43
288 1 541 162 661 421 28 59 63 173 64 206 0 4 -157 7 -350 7 -322 0 -350 -1
-358 -17z m481 -174 c-100 -169 -301 -289 -486 -289 l-59 0 84 160 83 160 198
0 198 0 -18 -31z"/>
<path d="M3000 2540 l0 -380 160 0 160 0 0 380 0 380 -160 0 -160 0 0 -380z"/>
<path d="M2280 1061 l0 -99 -222 -4 -223 -3 -54 -30 c-98 -54 -141 -133 -141
-257 l0 -68 921 0 922 0 -5 84 c-5 102 -34 165 -96 213 -71 54 -121 63 -344
63 l-198 0 0 100 0 100 -280 0 -280 0 0 -99z"/>
</g>
</svg>
