<svg fill="#9e9e9e" id="svg" version="1.1" xmlns="http://www.w3.org/2000/svg" xmlns:xlink="http://www.w3.org/1999/xlink" width="400" height="400.407747196738" viewBox="0, 0, 400,400.407747196738"><g id="svgg"><path id="path0" d="M198.200 1.018 C 196.605 1.859,194.872 3.544,194.546 4.569 C 194.280 5.407,194.244 6.049,194.087 12.700 L 194.000 16.400 191.851 16.400 C 187.890 16.400,179.345 18.954,173.400 21.914 C 152.518 32.313,142.478 58.564,152.015 77.828 C 156.534 86.956,161.409 90.035,183.000 97.395 L 193.800 101.076 193.903 122.738 C 193.960 134.652,193.897 144.400,193.762 144.400 C 192.764 144.400,187.407 140.999,185.564 139.196 C 182.111 135.817,176.685 126.757,177.411 125.582 C 177.541 125.372,177.457 125.200,177.224 125.200 C 176.991 125.200,176.800 124.974,176.800 124.697 C 176.800 123.473,172.683 115.957,170.968 114.049 C 168.239 111.014,166.144 110.068,162.400 110.181 C 149.899 110.559,145.013 124.385,151.958 139.730 C 157.736 152.498,173.211 163.301,189.909 166.223 L 194.000 166.939 194.083 170.770 C 194.128 172.876,194.185 175.410,194.209 176.400 C 194.314 180.748,198.631 183.513,202.162 181.493 C 205.206 179.753,205.526 178.853,205.570 171.908 C 205.599 167.374,205.630 167.209,206.500 167.030 C 206.995 166.927,209.380 166.464,211.800 166.000 C 227.349 163.020,241.292 152.431,247.444 138.932 C 251.778 129.421,251.935 114.467,247.789 106.189 C 242.858 96.346,235.889 91.917,214.800 85.224 C 210.510 83.863,206.785 82.680,206.522 82.596 C 205.939 82.408,205.800 77.316,205.800 56.163 C 205.800 37.164,205.597 37.646,211.668 42.203 C 216.698 45.978,218.834 49.248,222.529 58.829 C 225.936 67.662,227.188 69.451,231.370 71.455 C 239.947 75.565,249.767 69.202,250.334 59.167 C 251.397 40.354,234.839 22.170,212.432 17.542 C 211.095 17.266,210.000 16.921,210.000 16.775 C 210.000 16.630,209.550 16.597,209.000 16.702 C 208.450 16.807,208.000 16.730,208.000 16.531 C 208.000 16.332,207.505 16.176,206.900 16.184 L 205.800 16.200 205.600 10.580 C 205.381 4.421,205.146 3.713,202.708 1.858 C 200.922 0.498,199.639 0.259,198.200 1.018 M193.856 59.200 L 193.800 77.800 192.811 77.660 C 186.726 76.797,174.898 66.649,176.156 63.371 C 176.276 63.057,176.212 62.800,176.014 62.800 C 175.140 62.800,175.855 53.884,176.940 51.243 C 179.389 45.279,184.790 40.480,190.959 38.783 L 193.400 38.112 193.656 39.356 C 193.797 40.040,193.887 48.970,193.856 59.200 M208.698 106.332 C 217.317 109.839,224.512 116.868,223.489 120.781 C 223.371 121.231,223.438 121.700,223.638 121.823 C 224.127 122.126,224.102 125.600,223.610 125.600 C 223.390 125.600,223.325 126.123,223.460 126.800 C 223.592 127.460,223.543 128.000,223.350 128.001 C 223.157 128.001,222.980 128.552,222.956 129.224 C 222.709 136.137,207.902 148.084,206.131 142.800 C 205.687 141.476,205.321 105.200,205.751 105.200 C 205.842 105.200,207.168 105.709,208.698 106.332 M328.800 150.034 C 323.291 151.094,323.759 155.187,330.845 167.917 C 332.840 171.501,334.387 174.656,334.283 174.929 C 334.178 175.202,330.336 177.651,325.746 180.372 C 321.156 183.092,311.280 188.956,303.800 193.402 C 296.320 197.849,287.320 203.158,283.800 205.201 C 280.280 207.245,273.080 211.468,267.800 214.586 C 262.520 217.704,257.453 220.671,256.539 221.179 L 254.878 222.103 239.739 214.400 C 214.479 201.546,202.133 195.225,195.000 191.496 C 183.593 185.531,159.327 173.642,153.884 171.351 C 149.166 169.366,148.900 169.485,68.400 209.647 C 2.412 242.569,3.561 241.933,1.279 246.800 C -1.360 252.430,2.266 259.923,8.745 262.228 C 9.765 262.591,10.870 262.989,11.200 263.113 C 12.043 263.428,13.600 263.484,13.600 263.199 C 13.600 263.068,14.275 262.720,15.100 262.426 C 20.448 260.518,36.765 252.578,100.385 220.926 C 134.323 204.042,150.025 196.424,150.585 196.574 C 151.033 196.694,156.620 199.499,163.000 202.808 C 169.380 206.117,181.400 212.247,189.711 216.431 C 198.022 220.614,207.202 225.307,210.111 226.859 C 222.631 233.538,253.912 248.800,255.082 248.800 C 257.698 248.800,258.165 248.556,281.800 234.886 C 287.300 231.704,293.330 228.161,295.200 227.013 C 297.070 225.864,306.340 220.363,315.800 214.789 C 325.260 209.214,335.996 202.886,339.658 200.727 C 343.319 198.567,346.505 196.800,346.737 196.800 C 347.392 196.800,348.805 198.879,352.717 205.600 C 362.310 222.081,362.278 222.108,388.693 175.200 C 400.554 154.137,400.135 155.187,397.940 151.970 L 396.680 150.124 387.676 149.862 C 374.921 149.491,330.956 149.619,328.800 150.034 M326.064 228.112 L 323.927 230.299 324.168 311.049 C 324.444 403.557,324.250 395.556,326.280 398.300 L 327.241 399.600 358.720 399.592 C 395.409 399.583,396.542 399.499,398.208 396.679 C 399.935 393.755,400.117 238.553,398.404 230.230 C 397.954 228.046,397.058 226.800,395.938 226.800 C 395.532 226.800,395.200 226.665,395.199 226.500 C 395.199 226.335,380.124 226.138,361.699 226.062 L 328.200 225.925 326.064 228.112 M110.285 249.914 L 108.400 251.827 108.428 319.414 C 108.459 394.690,108.470 395.177,110.240 397.695 L 111.437 399.400 145.019 399.651 L 178.600 399.902 180.899 398.051 L 183.197 396.200 183.198 323.800 L 183.198 251.400 181.099 249.703 L 179.000 248.005 145.585 248.003 L 112.170 248.000 110.285 249.914 M227.861 279.472 C 227.821 279.512,226.154 279.625,224.156 279.724 C 220.480 279.906,218.274 280.592,217.065 281.928 C 216.277 282.800,215.498 343.663,215.878 374.703 L 216.128 395.205 218.261 397.562 L 220.394 399.919 254.097 399.724 L 287.800 399.529 288.875 398.386 C 291.045 396.079,290.959 398.392,291.100 338.643 L 291.232 283.085 290.316 282.105 C 288.847 280.532,287.340 279.960,284.068 279.736 C 281.314 279.548,228.036 279.297,227.861 279.472 M14.000 297.157 C 2.122 297.501,1.608 297.766,0.708 304.000 C 0.143 307.919,0.011 385.375,0.559 392.115 C 1.189 399.866,-1.576 399.336,39.067 399.500 L 72.333 399.634 73.422 398.206 C 75.351 395.678,75.339 395.968,75.400 347.800 C 75.468 294.553,75.871 298.593,70.392 297.573 C 67.764 297.084,26.930 296.783,14.000 297.157 " stroke="none" fill="#9e9e9e" fill-rule="evenodd"></path><path id="path1" d="M193.755 10.600 C 193.756 13.460,193.820 14.578,193.897 13.083 C 193.974 11.589,193.974 9.249,193.896 7.883 C 193.818 6.518,193.755 7.740,193.755 10.600 M205.755 10.600 C 205.756 13.460,205.820 14.578,205.897 13.083 C 205.974 11.589,205.974 9.249,205.896 7.883 C 205.818 6.518,205.755 7.740,205.755 10.600 M189.600 16.000 C 189.600 16.475,190.295 16.475,191.400 16.000 C 192.070 15.712,191.989 15.652,190.900 15.628 C 190.185 15.613,189.600 15.780,189.600 16.000 M220.800 19.553 C 220.800 19.748,221.160 20.001,221.600 20.116 C 222.545 20.363,222.686 19.795,221.767 19.443 C 220.928 19.121,220.800 19.135,220.800 19.553 M174.100 20.488 C 172.775 21.127,173.005 21.627,174.400 21.140 C 175.060 20.910,175.600 20.559,175.600 20.361 C 175.600 19.908,175.241 19.938,174.100 20.488 M222.800 20.361 C 222.800 20.559,223.340 20.910,224.000 21.140 C 225.459 21.649,225.603 21.112,224.181 20.464 C 222.955 19.905,222.800 19.894,222.800 20.361 M167.900 24.229 C 167.295 24.557,166.800 24.910,166.800 25.013 C 166.800 25.399,167.432 25.157,168.400 24.400 C 169.589 23.470,169.411 23.409,167.900 24.229 M230.800 24.500 C 231.133 24.874,235.757 28.217,236.400 28.549 C 237.718 29.228,233.700 25.980,232.205 25.158 C 231.322 24.672,230.690 24.376,230.800 24.500 M163.576 27.635 C 161.694 29.395,161.636 29.490,163.144 28.335 C 166.146 26.037,166.613 25.618,166.176 25.609 C 165.943 25.604,164.773 26.516,163.576 27.635 M239.190 31.390 C 240.380 32.595,241.443 33.491,241.552 33.381 C 241.814 33.119,237.949 29.200,237.429 29.200 C 237.208 29.200,238.001 30.186,239.190 31.390 M157.634 33.500 C 156.738 34.545,156.004 35.571,156.003 35.780 C 156.000 36.218,156.065 36.149,158.180 33.500 C 159.014 32.455,159.599 31.600,159.479 31.600 C 159.360 31.600,158.529 32.455,157.634 33.500 M243.600 36.296 C 243.600 36.547,243.773 36.860,243.985 36.991 C 244.197 37.121,245.004 38.347,245.779 39.714 C 246.554 41.081,247.190 42.009,247.194 41.776 C 247.200 41.332,244.617 36.875,243.973 36.220 C 243.738 35.981,243.600 36.009,243.600 36.296 M153.790 38.990 C 152.975 40.448,152.419 41.752,152.554 41.887 C 152.689 42.023,152.800 41.958,152.800 41.743 C 152.800 41.529,153.433 40.302,154.207 39.017 C 154.981 37.732,155.537 36.604,155.443 36.510 C 155.350 36.416,154.606 37.532,153.790 38.990 M192.687 38.722 C 193.015 38.930,193.215 40.657,193.301 44.016 L 193.427 49.000 193.514 43.700 C 193.592 38.884,193.536 38.401,192.900 38.406 C 192.416 38.410,192.350 38.508,192.687 38.722 M209.215 41.161 C 209.977 41.800,210.690 42.233,210.800 42.125 C 211.044 41.885,208.754 40.005,208.215 40.002 C 208.003 40.001,208.453 40.522,209.215 41.161 M182.347 44.080 C 180.153 46.251,177.160 50.790,177.219 51.856 C 177.230 52.045,177.794 51.120,178.473 49.800 C 179.205 48.378,180.840 46.286,182.486 44.666 C 184.014 43.162,185.181 41.848,185.079 41.746 C 184.977 41.644,183.748 42.694,182.347 44.080 M211.200 42.302 C 211.200 42.522,211.470 42.926,211.800 43.200 C 212.135 43.478,212.400 43.521,212.400 43.298 C 212.400 43.078,212.130 42.674,211.800 42.400 C 211.465 42.122,211.200 42.079,211.200 42.302 M213.200 44.125 C 213.200 44.194,213.768 44.779,214.462 45.425 C 215.686 46.565,215.695 46.119,214.477 44.700 C 213.955 44.092,213.200 43.752,213.200 44.125 M216.003 47.020 C 216.001 47.251,216.188 47.628,216.417 47.857 C 216.646 48.086,217.541 49.607,218.406 51.237 C 219.271 52.867,219.984 54.060,219.989 53.889 C 220.004 53.460,217.824 49.267,216.823 47.800 C 216.373 47.140,216.004 46.789,216.003 47.020 M250.528 58.000 C 250.528 59.430,250.601 60.015,250.689 59.300 C 250.778 58.585,250.778 57.415,250.689 56.700 C 250.601 55.985,250.528 56.570,250.528 58.000 M148.134 62.000 C 148.134 63.650,148.205 64.325,148.291 63.500 C 148.378 62.675,148.378 61.325,148.291 60.500 C 148.205 59.675,148.134 60.350,148.134 62.000 M223.600 63.813 C 223.600 66.141,230.314 73.420,231.431 72.302 C 231.538 72.195,231.094 71.888,230.445 71.619 C 229.196 71.101,226.000 67.941,226.000 67.223 C 226.000 66.991,225.842 66.800,225.649 66.800 C 225.267 66.800,224.150 64.389,224.305 63.900 C 224.357 63.735,224.220 63.600,224.000 63.600 C 223.780 63.600,223.600 63.696,223.600 63.813 M247.429 67.500 C 246.582 68.765,246.239 69.489,246.666 69.109 C 247.383 68.471,249.429 65.200,249.110 65.200 C 249.033 65.200,248.277 66.235,247.429 67.500 M244.200 71.023 C 243.454 71.656,243.315 71.891,243.833 71.643 C 244.576 71.287,245.925 69.997,245.549 70.002 C 245.467 70.003,244.860 70.463,244.200 71.023 M206.158 76.600 C 206.158 79.680,206.221 80.887,206.297 79.282 C 206.373 77.678,206.373 75.158,206.296 73.682 C 206.219 72.207,206.157 73.520,206.158 76.600 M211.200 83.533 C 211.200 83.909,214.060 84.873,214.341 84.592 C 214.441 84.492,213.871 84.138,213.074 83.805 C 211.404 83.107,211.200 83.078,211.200 83.533 M155.600 84.717 C 155.600 85.133,156.464 86.000,156.880 86.000 C 157.469 86.000,157.208 85.398,156.400 84.893 C 155.960 84.618,155.600 84.539,155.600 84.717 M158.400 87.400 C 158.674 87.730,159.078 88.000,159.298 88.000 C 159.521 88.000,159.478 87.735,159.200 87.400 C 158.926 87.070,158.522 86.800,158.302 86.800 C 158.079 86.800,158.122 87.065,158.400 87.400 M160.090 88.469 C 160.252 88.956,167.096 92.789,167.800 92.788 C 168.020 92.787,166.708 91.986,164.885 91.007 C 163.061 90.028,161.294 88.951,160.956 88.613 C 160.225 87.882,159.874 87.823,160.090 88.469 M236.018 93.038 C 237.658 94.049,239.163 94.977,239.362 95.100 C 239.561 95.223,239.597 95.119,239.442 94.868 C 239.118 94.344,233.935 91.200,233.395 91.200 C 233.198 91.200,234.379 92.027,236.018 93.038 M241.393 97.193 C 242.248 98.069,243.037 98.696,243.147 98.587 C 243.409 98.324,240.759 95.600,240.240 95.600 C 240.019 95.600,240.537 96.317,241.393 97.193 M188.000 99.800 C 188.770 100.097,189.670 100.339,190.000 100.339 C 190.330 100.339,189.970 100.097,189.200 99.800 C 188.430 99.503,187.530 99.261,187.200 99.261 C 186.870 99.261,187.230 99.503,188.000 99.800 M244.033 99.800 C 244.033 100.020,244.565 100.823,245.216 101.585 C 245.867 102.347,246.400 102.790,246.400 102.570 C 246.400 102.350,245.867 101.547,245.216 100.785 C 244.565 100.023,244.033 99.580,244.033 99.800 M193.507 122.238 C 193.566 133.767,193.514 143.200,193.391 143.200 C 193.268 143.200,192.462 142.840,191.600 142.400 C 189.798 141.481,189.600 141.443,189.600 142.024 C 189.600 142.257,189.780 142.336,190.000 142.200 C 190.220 142.064,190.400 142.110,190.400 142.302 C 190.400 142.664,192.930 144.000,193.614 144.000 C 194.074 144.000,194.159 101.746,193.700 101.462 C 193.535 101.360,193.448 110.709,193.507 122.238 M246.800 103.447 C 246.800 103.667,247.064 104.196,247.387 104.624 C 247.710 105.051,247.975 105.220,247.975 105.000 C 247.975 104.780,247.710 104.251,247.387 103.824 C 247.064 103.396,246.800 103.227,246.800 103.447 M205.695 120.300 L 205.790 135.000 205.900 120.700 C 205.970 111.630,206.155 106.400,206.405 106.400 C 206.622 106.400,206.800 106.220,206.800 106.000 C 206.800 105.780,206.530 105.600,206.200 105.600 C 205.676 105.600,205.612 107.458,205.695 120.300 M207.389 106.417 C 207.259 106.628,207.239 106.800,207.344 106.800 C 207.449 106.800,207.819 106.909,208.167 107.043 C 208.515 107.176,208.800 107.106,208.800 106.886 C 208.800 106.326,207.676 105.953,207.389 106.417 M216.000 110.623 C 216.000 110.775,216.841 111.639,217.869 112.544 C 218.897 113.449,220.247 114.992,220.869 115.973 C 221.491 116.954,222.000 117.572,222.000 117.347 C 222.000 116.497,219.506 113.220,217.787 111.811 C 216.804 111.006,216.000 110.471,216.000 110.623 M170.899 113.500 C 171.927 114.545,173.585 116.836,174.584 118.590 C 176.761 122.415,176.992 122.244,174.935 118.330 C 173.443 115.490,170.288 111.600,169.478 111.600 C 169.232 111.600,169.871 112.455,170.899 113.500 M150.181 116.837 C 149.829 117.518,149.612 118.145,149.699 118.232 C 149.786 118.319,150.156 117.762,150.522 116.995 C 151.344 115.270,151.059 115.138,150.181 116.837 M250.951 121.200 C 250.951 123.730,251.016 124.765,251.096 123.500 C 251.175 122.235,251.175 120.165,251.096 118.900 C 251.016 117.635,250.951 118.670,250.951 121.200 M218.662 136.331 C 217.933 137.137,217.772 137.788,218.398 137.401 C 218.815 137.143,219.739 135.600,219.476 135.600 C 219.392 135.600,219.026 135.929,218.662 136.331 M184.805 138.007 C 185.505 138.891,186.465 139.812,186.939 140.054 C 187.413 140.296,186.907 139.573,185.815 138.447 C 183.428 135.985,183.086 135.836,184.805 138.007 M215.362 139.658 C 214.604 140.512,214.605 140.514,215.500 140.044 C 215.995 139.784,216.400 139.398,216.400 139.186 C 216.400 138.618,216.209 138.705,215.362 139.658 M209.246 142.957 C 208.630 143.299,208.453 143.585,208.746 143.767 C 208.996 143.921,209.200 143.846,209.200 143.600 C 209.200 143.354,209.380 143.264,209.600 143.400 C 209.820 143.536,210.000 143.446,210.000 143.200 C 210.000 142.954,210.180 142.864,210.400 143.000 C 210.620 143.136,210.800 143.057,210.800 142.824 C 210.800 142.274,210.419 142.307,209.246 142.957 M156.000 147.861 C 156.000 148.081,156.450 148.683,157.000 149.200 C 157.550 149.717,158.000 149.959,158.000 149.739 C 158.000 149.519,157.550 148.917,157.000 148.400 C 156.450 147.883,156.000 147.641,156.000 147.861 M333.900 149.496 C 335.275 149.574,337.525 149.574,338.900 149.496 C 340.275 149.418,339.150 149.354,336.400 149.354 C 333.650 149.354,332.525 149.418,333.900 149.496 M352.500 149.499 C 356.405 149.565,362.795 149.565,366.700 149.499 C 370.605 149.434,367.410 149.380,359.600 149.380 C 351.790 149.380,348.595 149.434,352.500 149.499 M325.600 150.600 C 325.322 150.935,325.279 151.200,325.502 151.200 C 325.722 151.200,326.126 150.930,326.400 150.600 C 326.678 150.265,326.721 150.000,326.498 150.000 C 326.278 150.000,325.874 150.270,325.600 150.600 M238.993 152.007 C 238.137 152.883,237.619 153.600,237.840 153.600 C 238.359 153.600,241.009 150.876,240.747 150.613 C 240.637 150.504,239.848 151.131,238.993 152.007 M161.570 153.746 C 162.103 154.326,162.710 154.800,162.919 154.800 C 163.456 154.800,162.428 153.640,161.433 153.124 C 160.690 152.738,160.704 152.805,161.570 153.746 M234.575 155.900 C 233.473 156.725,232.128 157.723,231.586 158.118 C 230.867 158.642,231.035 158.609,232.205 157.998 C 233.714 157.210,237.248 154.448,236.789 154.415 C 236.673 154.407,235.677 155.075,234.575 155.900 M164.600 156.212 C 165.260 156.753,165.980 157.196,166.200 157.196 C 166.420 157.196,166.060 156.753,165.400 156.212 C 164.740 155.671,164.020 155.229,163.800 155.229 C 163.580 155.229,163.940 155.671,164.600 156.212 M397.000 160.800 C 396.659 161.460,396.469 162.000,396.579 162.000 C 396.689 162.000,397.059 161.460,397.400 160.800 C 397.741 160.140,397.931 159.600,397.821 159.600 C 397.711 159.600,397.341 160.140,397.000 160.800 M193.757 172.400 C 193.757 175.370,193.820 176.585,193.897 175.100 C 193.974 173.615,193.974 171.185,193.897 169.700 C 193.820 168.215,193.757 169.430,193.757 172.400 M205.757 172.400 C 205.757 175.370,205.820 176.585,205.897 175.100 C 205.974 173.615,205.974 171.185,205.897 169.700 C 205.820 168.215,205.757 169.430,205.757 172.400 M330.000 168.182 C 330.000 168.283,330.536 169.273,331.190 170.384 C 331.845 171.494,332.656 172.934,332.991 173.583 L 333.601 174.763 329.790 177.037 C 327.693 178.288,326.053 179.386,326.144 179.478 C 326.236 179.569,328.126 178.533,330.344 177.175 C 334.638 174.548,334.768 174.311,332.937 172.480 C 332.642 172.184,332.400 171.713,332.400 171.433 C 332.400 171.152,332.040 170.507,331.600 170.000 C 331.160 169.493,330.800 168.835,330.800 168.539 C 330.800 168.242,330.620 168.000,330.400 168.000 C 330.180 168.000,330.000 168.082,330.000 168.182 M392.552 169.118 C 391.379 171.036,388.361 176.800,388.531 176.800 C 388.799 176.800,393.279 168.746,393.107 168.574 C 393.032 168.498,392.782 168.743,392.552 169.118 M142.000 172.800 C 141.230 173.222,140.780 173.566,141.000 173.566 C 141.220 173.566,142.030 173.222,142.800 172.800 C 143.570 172.378,144.020 172.034,143.800 172.034 C 143.580 172.034,142.770 172.378,142.000 172.800 M138.800 174.200 C 138.250 174.514,137.980 174.772,138.200 174.772 C 138.420 174.772,139.050 174.514,139.600 174.200 C 140.150 173.886,140.420 173.628,140.200 173.628 C 139.980 173.628,139.350 173.886,138.800 174.200 M132.800 177.000 C 131.810 177.530,131.180 177.964,131.400 177.964 C 131.620 177.964,132.610 177.530,133.600 177.000 C 134.590 176.470,135.220 176.036,135.000 176.036 C 134.780 176.036,133.790 176.470,132.800 177.000 M168.033 177.348 C 168.526 177.785,180.800 183.814,180.800 183.620 C 180.800 183.381,168.601 177.200,168.130 177.200 C 167.985 177.200,167.942 177.267,168.033 177.348 M387.400 178.400 C 387.059 179.060,386.869 179.600,386.979 179.600 C 387.089 179.600,387.459 179.060,387.800 178.400 C 388.141 177.740,388.331 177.200,388.221 177.200 C 388.111 177.200,387.741 177.740,387.400 178.400 M124.000 181.200 C 123.230 181.622,122.780 181.966,123.000 181.966 C 123.220 181.966,124.030 181.622,124.800 181.200 C 125.570 180.778,126.020 180.434,125.800 180.434 C 125.580 180.434,124.770 180.778,124.000 181.200 M116.900 184.516 C 114.205 185.874,112.000 187.128,112.000 187.303 C 112.000 187.478,112.495 187.372,113.100 187.068 C 113.705 186.765,116.045 185.650,118.300 184.592 C 120.555 183.534,122.400 182.518,122.400 182.334 C 122.400 181.786,122.011 181.940,116.900 184.516 M383.833 184.257 C 383.452 185.250,383.872 185.386,384.382 184.434 C 384.627 183.975,384.661 183.600,384.457 183.600 C 384.253 183.600,383.972 183.896,383.833 184.257 M312.048 187.366 C 310.424 188.332,308.984 189.290,308.848 189.496 C 308.711 189.701,307.745 190.366,306.700 190.973 C 305.655 191.579,304.800 192.155,304.800 192.252 C 304.800 192.605,312.487 188.081,312.845 187.517 C 312.979 187.305,313.198 187.192,313.332 187.266 C 313.465 187.340,313.925 187.100,314.353 186.733 C 314.782 186.366,315.238 186.171,315.366 186.300 C 315.495 186.428,315.600 186.323,315.600 186.067 C 315.600 185.341,315.210 185.484,312.048 187.366 M188.400 187.490 C 188.400 187.665,188.760 188.032,189.200 188.307 C 189.643 188.584,190.000 188.633,190.000 188.417 C 190.000 188.203,189.640 187.835,189.200 187.600 C 188.760 187.365,188.400 187.315,188.400 187.490 M190.400 188.704 C 190.400 188.872,194.270 190.941,199.000 193.303 C 203.730 195.665,207.600 197.509,207.600 197.401 C 207.600 197.293,204.315 195.560,200.300 193.551 C 196.285 191.542,192.571 189.561,192.046 189.149 C 191.047 188.364,190.400 188.190,190.400 188.704 M380.694 189.700 C 380.588 189.975,380.524 190.303,380.551 190.429 C 380.578 190.554,380.285 190.972,379.900 191.357 C 379.515 191.742,379.200 192.299,379.200 192.595 C 379.200 192.891,379.054 193.193,378.876 193.267 C 378.501 193.421,375.847 198.000,376.133 198.000 C 376.238 198.000,376.823 197.148,377.434 196.106 C 378.044 195.064,378.871 193.861,379.272 193.431 C 379.672 193.001,380.000 192.486,380.000 192.288 C 380.000 192.089,380.360 191.469,380.800 190.909 C 381.240 190.350,381.600 189.736,381.600 189.546 C 381.600 189.017,380.911 189.134,380.694 189.700 M100.800 192.800 C 98.710 193.878,97.180 194.759,97.400 194.759 C 97.620 194.759,99.510 193.878,101.600 192.800 C 103.690 191.722,105.220 190.841,105.000 190.841 C 104.780 190.841,102.890 191.722,100.800 192.800 M144.124 199.503 C 137.131 203.053,137.579 203.126,144.836 199.618 C 148.006 198.086,150.330 196.830,150.000 196.828 C 149.670 196.826,147.026 198.030,144.124 199.503 M345.500 197.830 C 344.040 198.620,344.077 198.987,345.540 198.231 C 346.429 197.771,346.793 197.747,347.190 198.120 C 347.590 198.497,347.662 198.476,347.525 198.025 C 347.274 197.201,346.753 197.151,345.500 197.830 M290.481 200.279 C 288.436 201.498,286.835 202.568,286.923 202.657 C 287.068 202.801,294.188 198.746,294.715 198.218 C 295.409 197.524,293.741 198.336,290.481 200.279 M375.000 199.600 C 374.659 200.260,374.469 200.800,374.579 200.800 C 374.689 200.800,375.059 200.260,375.400 199.600 C 375.741 198.940,375.931 198.400,375.821 198.400 C 375.711 198.400,375.341 198.940,375.000 199.600 M217.545 202.628 C 221.585 204.727,224.979 206.354,225.088 206.245 C 225.287 206.046,211.071 198.794,210.504 198.807 C 210.337 198.810,213.505 200.530,217.545 202.628 M339.800 201.033 C 337.820 202.219,336.359 203.192,336.553 203.195 C 336.973 203.201,344.000 199.215,344.000 198.970 C 344.000 198.597,343.252 198.964,339.800 201.033 M348.350 199.800 C 348.930 200.984,349.973 202.260,349.985 201.800 C 349.991 201.580,349.537 200.860,348.977 200.200 C 348.416 199.540,348.134 199.360,348.350 199.800 M75.000 205.266 C 66.349 209.617,66.563 209.497,66.888 209.821 C 67.116 210.050,84.000 201.734,84.000 201.392 C 84.000 200.860,82.346 201.572,75.000 205.266 M159.600 201.799 C 159.600 202.064,168.448 206.485,168.625 206.308 C 168.703 206.231,166.704 205.140,164.183 203.886 C 161.662 202.631,159.600 201.692,159.600 201.799 M285.100 203.429 C 284.495 203.757,284.000 204.110,284.000 204.213 C 284.000 204.632,284.767 204.354,285.656 203.613 C 286.781 202.676,286.599 202.615,285.100 203.429 M282.571 204.991 C 282.147 205.312,281.980 205.578,282.200 205.581 C 282.794 205.591,283.810 204.877,283.559 204.626 C 283.440 204.506,282.995 204.671,282.571 204.991 M280.571 206.191 C 280.147 206.512,279.980 206.778,280.200 206.781 C 280.794 206.791,281.810 206.077,281.559 205.826 C 281.440 205.706,280.995 205.871,280.571 206.191 M277.771 207.771 C 277.348 208.081,277.104 208.437,277.230 208.563 C 277.356 208.689,277.805 208.538,278.229 208.229 C 278.652 207.919,278.896 207.563,278.770 207.437 C 278.644 207.311,278.195 207.462,277.771 207.771 M353.200 208.000 C 353.435 208.440,353.803 208.800,354.017 208.800 C 354.233 208.800,354.184 208.443,353.907 208.000 C 353.632 207.560,353.265 207.200,353.090 207.200 C 352.915 207.200,352.965 207.560,353.200 208.000 M275.771 208.971 C 275.348 209.281,275.091 209.625,275.201 209.735 C 275.311 209.845,275.748 209.681,276.171 209.371 C 276.595 209.062,276.852 208.718,276.742 208.608 C 276.632 208.498,276.195 208.662,275.771 208.971 M231.200 209.513 C 231.200 209.676,235.070 211.741,239.800 214.103 C 244.530 216.465,248.400 218.309,248.400 218.201 C 248.400 218.093,245.295 216.454,241.500 214.560 C 237.705 212.665,234.330 210.899,234.000 210.635 C 233.131 209.940,231.200 209.166,231.200 209.513 M323.200 210.676 C 322.210 211.264,321.340 211.892,321.267 212.072 C 321.193 212.253,320.906 212.400,320.628 212.400 C 320.350 212.400,319.707 212.760,319.200 213.200 C 317.791 214.422,318.741 214.154,321.311 212.605 C 323.364 211.366,325.647 209.594,325.175 209.604 C 325.079 209.606,324.190 210.088,323.200 210.676 M273.416 210.374 C 273.289 210.580,271.568 211.674,269.592 212.804 C 267.616 213.935,266.000 214.947,266.000 215.054 C 266.000 215.283,265.685 215.447,270.300 212.813 C 272.335 211.651,274.000 210.543,274.000 210.350 C 274.000 209.891,273.707 209.903,273.416 210.374 M354.843 210.814 C 355.187 211.332,355.723 211.822,356.034 211.903 C 356.345 211.984,356.240 211.761,355.800 211.408 C 355.360 211.055,355.059 210.643,355.130 210.493 C 355.202 210.343,355.026 210.142,354.739 210.046 C 354.361 209.920,354.390 210.132,354.843 210.814 M53.600 216.200 C 48.650 218.706,44.780 220.757,45.000 220.757 C 45.220 220.757,49.450 218.706,54.400 216.200 C 59.350 213.694,63.220 211.643,63.000 211.643 C 62.780 211.643,58.550 213.694,53.600 216.200 M356.000 212.711 C 356.000 212.882,356.360 213.330,356.800 213.707 C 357.693 214.472,357.801 214.323,357.186 213.174 C 356.777 212.410,356.000 212.107,356.000 212.711 M366.400 213.000 C 366.117 213.341,365.976 213.709,366.086 213.819 C 366.196 213.929,366.517 213.741,366.800 213.400 C 367.083 213.059,367.224 212.691,367.114 212.581 C 367.004 212.471,366.683 212.659,366.400 213.000 M317.200 214.424 C 317.200 214.657,317.020 214.736,316.800 214.600 C 316.580 214.464,316.400 214.543,316.400 214.776 C 316.400 215.009,316.130 215.200,315.800 215.200 C 315.470 215.200,315.200 215.395,315.200 215.633 C 315.200 215.872,315.335 216.001,315.500 215.920 C 317.963 214.721,318.751 214.000,317.600 214.000 C 317.380 214.000,317.200 214.191,317.200 214.424 M185.200 214.992 C 185.200 215.209,187.918 216.637,189.414 217.205 C 189.996 217.427,190.400 217.431,190.400 217.217 C 190.400 216.845,188.839 216.178,188.300 216.321 C 188.135 216.364,188.000 216.249,188.000 216.064 C 188.000 215.880,187.542 215.520,186.981 215.264 C 185.912 214.777,185.200 214.668,185.200 214.992 M264.300 215.829 C 262.805 216.640,262.896 216.978,264.400 216.200 C 265.060 215.859,265.600 215.494,265.600 215.390 C 265.600 215.132,265.557 215.147,264.300 215.829 M363.424 215.813 C 362.996 216.136,362.827 216.400,363.047 216.400 C 363.267 216.400,363.796 216.136,364.224 215.813 C 364.651 215.490,364.820 215.225,364.600 215.225 C 364.380 215.225,363.851 215.490,363.424 215.813 M107.200 218.000 C 105.990 218.639,105.180 219.162,105.400 219.162 C 105.620 219.162,106.790 218.639,108.000 218.000 C 109.210 217.361,110.020 216.838,109.800 216.838 C 109.580 216.838,108.410 217.361,107.200 218.000 M190.800 217.527 C 190.800 217.716,191.250 218.077,191.800 218.327 C 192.350 218.578,192.800 218.717,192.800 218.637 C 192.800 218.557,192.350 218.197,191.800 217.837 C 191.250 217.476,190.800 217.337,190.800 217.527 M253.370 220.752 C 253.490 220.945,253.995 221.206,254.494 221.332 C 255.368 221.552,255.373 221.540,254.624 220.980 C 253.764 220.338,253.032 220.204,253.370 220.752 M40.043 222.810 C 38.637 223.475,37.600 224.133,37.739 224.272 C 38.067 224.600,41.200 223.191,41.200 222.716 C 41.200 222.516,41.360 222.451,41.555 222.572 C 41.750 222.693,42.132 222.523,42.404 222.196 C 43.067 221.397,42.988 221.417,40.043 222.810 M298.600 225.396 C 296.180 226.819,294.349 227.986,294.531 227.991 C 294.923 228.002,303.200 223.201,303.200 222.963 C 303.200 222.695,303.164 222.714,298.600 225.396 M205.200 224.998 C 205.200 225.266,210.049 227.685,210.228 227.506 C 210.308 227.425,209.210 226.785,207.787 226.083 C 206.364 225.382,205.200 224.893,205.200 224.998 M325.400 227.600 C 324.327 228.690,323.538 229.672,323.648 229.782 C 323.758 229.892,324.727 229.090,325.800 228.000 C 326.873 226.910,327.662 225.928,327.552 225.818 C 327.442 225.708,326.473 226.510,325.400 227.600 M389.600 226.007 C 391.250 226.167,392.771 226.140,392.980 225.949 C 393.198 225.748,391.921 225.625,389.980 225.659 L 386.600 225.717 389.600 226.007 M87.200 227.800 C 85.330 228.768,83.980 229.560,84.200 229.560 C 84.420 229.560,86.130 228.768,88.000 227.800 C 89.870 226.832,91.220 226.040,91.000 226.040 C 90.780 226.040,89.070 226.832,87.200 227.800 M286.012 232.784 C 285.688 232.989,285.521 233.254,285.641 233.374 C 285.760 233.494,286.205 233.329,286.629 233.009 C 287.473 232.371,286.960 232.185,286.012 232.784 M17.500 234.425 C 15.795 235.297,14.400 236.100,14.400 236.209 C 14.400 236.388,20.760 233.328,21.167 232.954 C 21.733 232.432,20.179 233.055,17.500 234.425 M283.362 234.455 L 282.600 235.309 283.900 234.644 C 285.288 233.935,285.532 233.600,284.662 233.600 C 284.366 233.600,283.781 233.985,283.362 234.455 M68.200 237.446 C 61.226 241.108,61.414 241.298,68.506 237.755 C 74.092 234.963,74.230 234.885,73.967 234.653 C 73.875 234.572,71.280 235.829,68.200 237.446 M223.600 234.596 C 223.600 234.794,231.407 238.800,231.793 238.800 C 231.907 238.800,232.000 238.609,232.000 238.376 C 232.000 238.143,231.820 238.064,231.600 238.200 C 231.380 238.336,231.200 238.246,231.200 238.000 C 231.200 237.754,231.020 237.664,230.800 237.800 C 230.580 237.936,230.400 237.846,230.400 237.600 C 230.400 237.354,230.220 237.264,230.000 237.400 C 229.780 237.536,229.600 237.446,229.600 237.200 C 229.600 236.954,229.435 236.855,229.234 236.979 C 229.033 237.103,228.808 237.047,228.734 236.853 C 228.452 236.113,223.600 233.980,223.600 234.596 M280.600 235.952 C 278.930 236.863,277.354 238.000,277.762 238.000 C 278.181 238.000,282.400 235.608,282.400 235.371 C 282.400 235.089,281.867 235.262,280.600 235.952 M275.814 238.737 C 274.540 239.449,273.385 240.400,273.792 240.400 C 274.271 240.400,277.194 238.597,277.197 238.300 C 277.201 237.941,277.283 237.915,275.814 238.737 M7.500 239.626 C 6.235 240.279,5.200 240.903,5.200 241.012 C 5.200 241.122,6.280 240.666,7.600 240.000 C 8.920 239.334,10.000 238.701,10.000 238.594 C 10.000 238.328,10.074 238.297,7.500 239.626 M399.328 240.800 C 399.328 242.230,399.401 242.815,399.489 242.100 C 399.578 241.385,399.578 240.215,399.489 239.500 C 399.401 238.785,399.328 239.370,399.328 240.800 M241.600 243.600 C 243.690 244.678,245.580 245.559,245.800 245.559 C 246.020 245.559,244.490 244.678,242.400 243.600 C 240.310 242.522,238.420 241.641,238.200 241.641 C 237.980 241.641,239.510 242.522,241.600 243.600 M55.600 243.600 C 53.950 244.458,52.780 245.160,53.000 245.160 C 53.220 245.160,54.750 244.458,56.400 243.600 C 58.050 242.742,59.220 242.040,59.000 242.040 C 58.780 242.040,57.250 242.742,55.600 243.600 M1.842 244.500 C 0.738 246.391,-0.010 248.206,0.019 248.926 C 0.029 249.187,0.367 248.556,0.770 247.525 C 1.174 246.494,1.900 245.009,2.384 244.225 C 2.869 243.441,3.168 242.800,3.049 242.800 C 2.931 242.800,2.387 243.565,1.842 244.500 M262.700 246.229 C 261.205 247.040,261.296 247.378,262.800 246.600 C 263.460 246.259,264.000 245.894,264.000 245.790 C 264.000 245.532,263.957 245.547,262.700 246.229 M249.600 247.400 C 251.030 248.149,252.465 248.770,252.789 248.781 C 253.113 248.791,252.063 248.170,250.456 247.400 C 246.736 245.617,246.195 245.617,249.600 247.400 M45.200 248.600 C 43.330 249.568,41.980 250.360,42.200 250.360 C 42.420 250.360,44.130 249.568,46.000 248.600 C 47.870 247.632,49.220 246.840,49.000 246.840 C 48.780 246.840,47.070 247.632,45.200 248.600 M109.800 249.200 C 108.727 250.290,107.938 251.272,108.048 251.382 C 108.158 251.492,109.127 250.690,110.200 249.600 C 111.273 248.510,112.062 247.528,111.952 247.418 C 111.842 247.308,110.873 248.110,109.800 249.200 M180.800 248.661 C 180.800 248.881,181.250 249.483,181.800 250.000 C 182.350 250.517,182.800 250.759,182.800 250.539 C 182.800 250.319,182.350 249.717,181.800 249.200 C 181.250 248.683,180.800 248.441,180.800 248.661 M254.500 249.076 C 254.885 249.176,255.515 249.176,255.900 249.076 C 256.285 248.975,255.970 248.893,255.200 248.893 C 254.430 248.893,254.115 248.975,254.500 249.076 M183.600 323.680 C 183.490 363.874,183.535 396.625,183.701 396.459 C 183.867 396.293,183.957 363.407,183.901 323.379 L 183.800 250.600 183.600 323.680 M37.300 252.298 C 36.585 252.654,36.000 253.092,36.000 253.273 C 36.000 253.770,36.678 253.664,37.271 253.074 C 37.562 252.785,38.160 252.340,38.600 252.086 C 39.803 251.392,38.789 251.557,37.300 252.298 M0.804 255.422 C 0.798 256.076,2.967 259.290,4.144 260.370 C 4.725 260.903,5.200 261.199,5.200 261.027 C 5.200 260.856,4.743 260.356,4.185 259.916 C 3.626 259.477,2.638 258.191,1.988 257.059 C 1.339 255.926,0.806 255.190,0.804 255.422 M28.600 256.626 C 27.500 257.156,26.420 257.657,26.200 257.740 C 25.980 257.823,25.914 258.014,26.052 258.164 C 26.350 258.487,30.800 256.380,30.800 255.917 C 30.800 255.533,31.012 255.465,28.600 256.626 M22.400 259.800 C 21.410 260.330,20.780 260.764,21.000 260.764 C 21.220 260.764,22.210 260.330,23.200 259.800 C 24.190 259.270,24.820 258.836,24.600 258.836 C 24.380 258.836,23.390 259.270,22.400 259.800 M244.128 279.100 C 249.808 279.162,258.988 279.162,264.528 279.100 C 270.068 279.037,265.420 278.986,254.200 278.986 C 242.980 278.986,238.448 279.037,244.128 279.100 M217.279 280.835 L 215.600 282.069 215.686 289.135 L 215.772 296.200 215.986 289.081 L 216.200 281.963 217.960 280.781 C 218.928 280.132,219.549 279.600,219.339 279.600 C 219.129 279.600,218.202 280.156,217.279 280.835 M39.323 296.699 C 42.141 296.768,46.641 296.768,49.323 296.699 C 52.005 296.630,49.700 296.573,44.200 296.573 C 38.700 296.574,36.505 296.630,39.323 296.699 M9.300 297.087 C 9.905 297.178,10.895 297.178,11.500 297.087 C 12.105 296.995,11.610 296.920,10.400 296.920 C 9.190 296.920,8.695 296.995,9.300 297.087 M399.769 307.000 C 399.770 311.620,399.828 313.455,399.899 311.078 C 399.970 308.701,399.969 304.921,399.898 302.678 C 399.827 300.435,399.769 302.380,399.769 307.000 M75.751 308.800 C 75.751 311.330,75.816 312.365,75.896 311.100 C 75.975 309.835,75.975 307.765,75.896 306.500 C 75.816 305.235,75.751 306.270,75.751 308.800 M0.101 307.800 C 0.105 308.680,0.187 308.993,0.283 308.495 C 0.379 307.998,0.375 307.278,0.275 306.895 C 0.175 306.513,0.096 306.920,0.101 307.800 M215.295 380.612 L 215.200 395.423 217.731 397.931 L 220.262 400.440 223.031 400.298 L 225.800 400.157 222.987 400.078 L 220.175 400.000 217.893 397.693 L 215.610 395.387 215.500 380.593 L 215.390 365.800 215.295 380.612 M108.155 381.400 C 108.156 384.260,108.220 385.378,108.297 383.883 C 108.374 382.389,108.374 380.049,108.296 378.683 C 108.218 377.318,108.155 378.540,108.155 381.400 M291.350 384.600 C 291.351 387.020,291.416 387.958,291.496 386.685 C 291.576 385.412,291.575 383.432,291.494 382.285 C 291.414 381.138,291.349 382.180,291.350 384.600 M399.344 384.000 C 399.344 386.090,399.412 386.945,399.494 385.900 C 399.576 384.855,399.576 383.145,399.494 382.100 C 399.412 381.055,399.344 381.910,399.344 384.000 M323.742 384.600 C 323.741 386.580,323.808 387.440,323.892 386.512 C 323.976 385.584,323.977 383.964,323.895 382.912 C 323.812 381.860,323.743 382.620,323.742 384.600 M0.124 388.600 C 0.126 389.920,0.201 390.412,0.290 389.693 C 0.379 388.974,0.377 387.894,0.286 387.293 C 0.195 386.692,0.122 387.280,0.124 388.600 M75.724 389.400 C 75.726 390.720,75.801 391.212,75.890 390.493 C 75.979 389.774,75.977 388.694,75.886 388.093 C 75.795 387.492,75.722 388.080,75.724 389.400 M10.105 399.887 C 10.714 399.979,11.614 399.977,12.105 399.882 C 12.597 399.787,12.100 399.711,11.000 399.714 C 9.900 399.717,9.497 399.795,10.105 399.887 M50.500 399.899 C 53.085 399.968,57.315 399.968,59.900 399.899 C 62.485 399.829,60.370 399.772,55.200 399.772 C 50.030 399.772,47.915 399.829,50.500 399.899 M124.100 399.899 C 126.685 399.968,130.915 399.968,133.500 399.899 C 136.085 399.829,133.970 399.772,128.800 399.772 C 123.630 399.772,121.515 399.829,124.100 399.899 M177.000 400.000 L 174.600 400.266 176.876 400.333 C 178.128 400.370,179.264 400.220,179.400 400.000 C 179.536 399.780,179.592 399.630,179.524 399.667 C 179.456 399.704,178.320 399.854,177.000 400.000 M267.300 399.899 C 269.885 399.968,274.115 399.968,276.700 399.899 C 279.285 399.829,277.170 399.772,272.000 399.772 C 266.830 399.772,264.715 399.829,267.300 399.899 M339.700 399.899 C 342.285 399.968,346.515 399.968,349.100 399.899 C 351.685 399.829,349.570 399.772,344.400 399.772 C 339.230 399.772,337.115 399.829,339.700 399.899 M387.705 399.887 C 388.314 399.979,389.214 399.977,389.705 399.882 C 390.197 399.787,389.700 399.711,388.600 399.714 C 387.500 399.717,387.097 399.795,387.705 399.887 " stroke="none" fill="#9e9e9e" fill-rule="evenodd"></path><path id="path2" d="M195.201 2.998 C 194.686 3.548,194.339 4.064,194.432 4.146 C 194.524 4.228,195.019 3.778,195.530 3.147 C 196.676 1.735,196.474 1.644,195.201 2.998 M194.114 7.400 C 194.117 8.500,194.195 8.903,194.287 8.295 C 194.379 7.686,194.377 6.786,194.282 6.295 C 194.187 5.803,194.111 6.300,194.114 7.400 M160.989 30.900 L 158.200 33.800 161.100 31.011 C 163.794 28.420,164.183 28.000,163.889 28.000 C 163.828 28.000,162.523 29.305,160.989 30.900 M241.200 33.709 C 241.200 33.927,244.957 39.071,245.502 39.600 C 245.616 39.710,245.521 39.438,245.292 38.997 C 244.766 37.982,241.200 33.374,241.200 33.709 M193.750 44.200 C 193.751 46.620,193.816 47.558,193.896 46.285 C 193.976 45.012,193.975 43.032,193.894 41.885 C 193.814 40.738,193.749 41.780,193.750 44.200 M181.381 44.500 L 179.800 46.200 181.500 44.619 C 182.435 43.749,183.200 42.984,183.200 42.919 C 183.200 42.616,182.852 42.919,181.381 44.500 M216.985 47.900 C 217.602 48.835,218.183 49.600,218.276 49.600 C 218.564 49.600,217.033 47.166,216.432 46.669 C 216.120 46.411,216.368 46.965,216.985 47.900 M193.776 65.400 C 193.776 71.560,193.832 74.024,193.899 70.876 C 193.967 67.727,193.967 62.687,193.899 59.676 C 193.831 56.664,193.776 59.240,193.776 65.400 M205.753 60.600 C 205.753 63.240,205.818 64.268,205.897 62.884 C 205.975 61.501,205.974 59.341,205.895 58.084 C 205.816 56.828,205.752 57.960,205.753 60.600 M236.105 73.087 C 236.714 73.179,237.614 73.177,238.105 73.082 C 238.597 72.987,238.100 72.911,237.000 72.914 C 235.900 72.917,235.497 72.995,236.105 73.087 M153.246 80.796 C 153.739 81.673,154.208 82.326,154.287 82.246 C 154.459 82.074,152.806 79.200,152.535 79.200 C 152.433 79.200,152.752 79.918,153.246 80.796 M229.200 90.098 C 229.523 90.418,233.200 91.971,233.200 91.788 C 233.200 91.696,232.705 91.369,232.100 91.061 C 230.902 90.452,228.878 89.780,229.200 90.098 M175.353 95.086 C 175.683 95.417,178.465 96.394,179.000 96.369 C 179.465 96.346,177.919 95.675,176.246 95.172 C 175.611 94.981,175.209 94.942,175.353 95.086 M182.000 97.400 C 183.826 98.103,184.545 98.093,183.000 97.386 C 182.340 97.083,181.530 96.842,181.200 96.848 C 180.870 96.855,181.230 97.103,182.000 97.400 M219.022 112.825 C 219.890 113.829,220.681 114.588,220.780 114.512 C 220.880 114.435,220.170 113.614,219.203 112.686 L 217.444 111.000 219.022 112.825 M223.371 123.620 C 223.387 124.709,223.535 125.600,223.700 125.600 C 224.109 125.600,224.083 122.098,223.671 121.844 C 223.490 121.732,223.355 122.532,223.371 123.620 M148.509 126.400 C 148.509 127.390,148.587 127.795,148.682 127.300 C 148.778 126.805,148.778 125.995,148.682 125.500 C 148.587 125.005,148.509 125.410,148.509 126.400 M185.200 139.000 C 185.946 139.770,186.647 140.400,186.757 140.400 C 186.867 140.400,186.346 139.770,185.600 139.000 C 184.854 138.230,184.153 137.600,184.043 137.600 C 183.933 137.600,184.454 138.230,185.200 139.000 M159.600 151.000 C 160.795 152.210,161.863 153.200,161.973 153.200 C 162.083 153.200,161.195 152.210,160.000 151.000 C 158.805 149.790,157.737 148.800,157.627 148.800 C 157.517 148.800,158.405 149.790,159.600 151.000 M387.500 149.897 C 389.095 149.973,391.705 149.973,393.300 149.897 C 394.895 149.821,393.590 149.759,390.400 149.759 C 387.210 149.759,385.905 149.821,387.500 149.897 M324.758 153.500 C 324.669 154.970,324.892 156.623,325.258 157.200 C 325.540 157.644,325.575 157.568,325.394 156.906 C 325.260 156.415,325.140 155.290,325.128 154.406 C 325.106 152.812,324.839 152.158,324.758 153.500 M170.000 158.955 C 170.000 159.231,172.821 160.912,172.994 160.739 C 173.078 160.655,172.438 160.180,171.573 159.682 C 170.708 159.184,170.000 158.857,170.000 158.955 M393.400 166.800 C 393.059 167.460,392.869 168.000,392.979 168.000 C 393.089 168.000,393.459 167.460,393.800 166.800 C 394.141 166.140,394.331 165.600,394.221 165.600 C 394.111 165.600,393.741 166.140,393.400 166.800 M391.094 170.903 L 390.388 172.200 391.194 171.256 C 391.880 170.452,392.246 169.594,391.900 169.603 C 391.845 169.604,391.482 170.189,391.094 170.903 M136.800 175.600 C 135.590 176.239,134.780 176.762,135.000 176.762 C 135.220 176.762,136.390 176.239,137.600 175.600 C 138.810 174.961,139.620 174.438,139.400 174.438 C 139.180 174.438,138.010 174.961,136.800 175.600 M194.101 175.800 C 194.105 176.680,194.187 176.993,194.283 176.495 C 194.379 175.998,194.375 175.278,194.275 174.895 C 194.175 174.513,194.096 174.920,194.101 175.800 M197.144 181.576 C 197.664 182.029,198.279 182.400,198.511 182.400 C 199.003 182.400,198.979 182.380,197.400 181.455 L 196.200 180.753 197.144 181.576 M198.800 193.388 C 198.800 193.498,199.880 194.134,201.200 194.800 C 202.520 195.466,203.600 195.922,203.600 195.812 C 203.600 195.702,202.520 195.066,201.200 194.400 C 199.880 193.734,198.800 193.278,198.800 193.388 M96.800 195.200 C 96.030 195.622,95.544 195.974,95.720 195.983 C 96.144 196.005,98.400 194.832,98.400 194.590 C 98.400 194.328,98.377 194.337,96.800 195.200 M89.400 198.794 C 86.320 200.299,83.929 201.546,84.087 201.565 C 84.522 201.618,95.200 196.489,95.200 196.228 C 95.200 195.932,95.775 195.678,89.400 198.794 M209.600 199.000 C 211.030 199.749,212.380 200.361,212.600 200.361 C 212.820 200.361,211.830 199.749,210.400 199.000 C 208.970 198.251,207.620 197.639,207.400 197.639 C 207.180 197.639,208.170 198.251,209.600 199.000 M154.400 198.598 C 154.400 198.865,160.049 201.685,160.227 201.506 C 160.307 201.427,159.028 200.697,157.386 199.884 C 155.744 199.071,154.400 198.493,154.400 198.598 M160.800 201.779 C 160.800 201.889,161.340 202.259,162.000 202.600 C 162.660 202.941,163.200 203.131,163.200 203.021 C 163.200 202.911,162.660 202.541,162.000 202.200 C 161.340 201.859,160.800 201.669,160.800 201.779 M336.697 202.366 C 335.053 203.419,334.825 203.791,336.275 203.054 C 336.976 202.697,337.661 202.224,337.798 202.003 C 338.119 201.484,338.023 201.515,336.697 202.366 M248.033 218.553 C 248.441 218.926,253.200 221.191,253.200 221.012 C 253.200 220.787,248.579 218.400,248.145 218.400 C 247.992 218.400,247.942 218.469,248.033 218.553 M98.300 221.852 C 95.935 223.024,94.000 224.066,94.000 224.167 C 94.000 224.328,102.334 220.499,102.767 220.139 C 103.654 219.400,101.847 220.094,98.300 221.852 M198.400 220.993 C 198.400 221.103,200.380 222.186,202.800 223.400 C 205.220 224.614,207.200 225.517,207.200 225.407 C 207.200 225.297,205.220 224.214,202.800 223.000 C 200.380 221.786,198.400 220.883,198.400 220.993 M328.033 225.745 C 328.125 225.825,341.070 225.972,356.800 226.073 C 372.530 226.173,384.050 226.131,382.400 225.980 C 379.361 225.701,327.726 225.478,328.033 225.745 M323.785 230.100 C 323.680 230.375,323.641 262.190,323.697 300.800 L 323.800 371.000 324.000 300.300 C 324.110 261.415,324.149 229.600,324.087 229.600 C 324.026 229.600,323.889 229.825,323.785 230.100 M11.500 238.026 C 10.235 238.679,9.200 239.303,9.200 239.412 C 9.200 239.522,10.280 239.066,11.600 238.400 C 12.920 237.734,14.000 237.101,14.000 236.994 C 14.000 236.728,14.074 236.697,11.500 238.026 M248.400 246.400 C 249.610 247.039,250.780 247.562,251.000 247.562 C 251.220 247.562,250.410 247.039,249.200 246.400 C 247.990 245.761,246.820 245.238,246.600 245.238 C 246.380 245.238,247.190 245.761,248.400 246.400 M112.400 247.600 C 112.400 247.863,123.733 248.000,145.600 248.000 C 167.467 248.000,178.800 247.863,178.800 247.600 C 178.800 247.337,167.467 247.200,145.600 247.200 C 123.733 247.200,112.400 247.337,112.400 247.600 M399.359 254.000 C 399.359 257.190,399.421 258.495,399.497 256.900 C 399.573 255.305,399.573 252.695,399.497 251.100 C 399.421 249.505,399.359 250.810,399.359 254.000 M183.396 323.800 C 183.396 363.620,183.443 379.851,183.500 359.868 C 183.557 339.886,183.557 307.306,183.500 287.468 C 183.443 267.631,183.396 283.980,183.396 323.800 M225.500 279.482 C 225.995 279.578,226.805 279.578,227.300 279.482 C 227.795 279.387,227.390 279.309,226.400 279.309 C 225.410 279.309,225.005 279.387,225.500 279.482 M243.900 279.500 C 249.455 279.562,258.545 279.562,264.100 279.500 C 269.655 279.437,265.110 279.386,254.000 279.386 C 242.890 279.386,238.345 279.437,243.900 279.500 M280.700 279.482 C 281.195 279.578,282.005 279.578,282.500 279.482 C 282.995 279.387,282.590 279.309,281.600 279.309 C 280.610 279.309,280.205 279.387,280.700 279.482 M216.655 281.939 C 216.060 282.596,215.999 283.788,216.100 292.639 L 216.215 302.600 216.307 292.631 C 216.388 284.002,216.489 282.565,217.062 281.931 C 217.426 281.529,217.634 281.200,217.524 281.200 C 217.414 281.200,217.023 281.533,216.655 281.939 M291.390 312.600 C 291.390 328.880,291.439 335.482,291.500 327.270 C 291.560 319.059,291.560 305.739,291.500 297.670 C 291.439 289.602,291.390 296.320,291.390 312.600 M17.712 297.095 C 18.764 297.177,20.384 297.176,21.312 297.092 C 22.240 297.008,21.380 296.941,19.400 296.942 C 17.420 296.943,16.660 297.012,17.712 297.095 M61.300 297.087 C 61.905 297.178,62.895 297.178,63.500 297.087 C 64.105 296.995,63.610 296.920,62.400 296.920 C 61.190 296.920,60.695 296.995,61.300 297.087 M75.369 312.400 C 75.369 316.910,75.427 318.755,75.498 316.500 C 75.570 314.245,75.570 310.555,75.498 308.300 C 75.427 306.045,75.369 307.890,75.369 312.400 M0.131 315.800 C 0.133 317.340,0.205 317.921,0.292 317.091 C 0.379 316.261,0.377 315.001,0.289 314.291 C 0.200 313.581,0.129 314.260,0.131 315.800 M215.777 329.400 C 215.777 335.780,215.832 338.334,215.899 335.076 C 215.967 331.817,215.966 326.597,215.899 323.476 C 215.831 320.354,215.776 323.020,215.777 329.400 M75.790 352.800 C 75.790 368.530,75.839 374.965,75.900 367.100 C 75.960 359.235,75.960 346.365,75.900 338.500 C 75.839 330.635,75.790 337.070,75.790 352.800 M399.368 362.600 C 399.368 367.000,399.426 368.855,399.498 366.721 C 399.570 364.588,399.570 360.988,399.499 358.721 C 399.427 356.455,399.368 358.200,399.368 362.600 M215.695 380.438 L 215.600 395.076 216.500 395.838 C 217.398 396.598,217.398 396.598,216.705 395.774 C 216.078 395.028,215.999 393.531,215.900 380.374 L 215.790 365.800 215.695 380.438 M324.169 379.200 C 324.169 383.710,324.227 385.555,324.298 383.300 C 324.370 381.045,324.370 377.355,324.298 375.100 C 324.227 372.845,324.169 374.690,324.169 379.200 M0.151 376.000 C 0.151 378.530,0.216 379.565,0.296 378.300 C 0.375 377.035,0.375 374.965,0.296 373.700 C 0.216 372.435,0.151 373.470,0.151 376.000 M75.346 387.800 C 75.347 390.000,75.414 390.849,75.495 389.687 C 75.576 388.524,75.576 386.724,75.493 385.687 C 75.411 384.649,75.345 385.600,75.346 387.800 M108.501 389.800 C 108.505 390.680,108.587 390.993,108.683 390.495 C 108.779 389.998,108.775 389.278,108.675 388.895 C 108.575 388.513,108.496 388.920,108.501 389.800 M290.893 391.200 C 290.893 391.970,290.975 392.285,291.076 391.900 C 291.176 391.515,291.176 390.885,291.076 390.500 C 290.975 390.115,290.893 390.430,290.893 391.200 M324.277 392.600 C 324.400 393.920,324.568 395.075,324.650 395.167 C 324.918 395.464,324.715 392.634,324.380 391.400 C 324.165 390.611,324.130 391.022,324.277 392.600 M75.000 394.000 C 74.848 394.691,74.807 395.341,74.909 395.442 C 75.011 395.544,75.209 395.053,75.350 394.350 C 75.683 392.683,75.360 392.360,75.000 394.000 M21.521 399.899 C 23.788 399.970,27.388 399.970,29.521 399.898 C 31.655 399.826,29.800 399.768,25.400 399.768 C 21.000 399.768,19.255 399.827,21.521 399.899 M153.100 399.898 C 155.135 399.971,158.465 399.971,160.500 399.898 C 162.535 399.825,160.870 399.766,156.800 399.766 C 152.730 399.766,151.065 399.825,153.100 399.898 M240.300 399.898 C 242.335 399.971,245.665 399.971,247.700 399.898 C 249.735 399.825,248.070 399.766,244.000 399.766 C 239.930 399.766,238.265 399.825,240.300 399.898 M370.321 399.899 C 372.588 399.970,376.188 399.970,378.321 399.898 C 380.455 399.826,378.600 399.768,374.200 399.768 C 369.800 399.768,368.055 399.827,370.321 399.899 " stroke="none" fill="#595959" fill-rule="evenodd"></path><path id="path3" d="M160.575 30.900 L 159.400 32.200 160.700 31.025 C 161.415 30.379,162.000 29.794,162.000 29.725 C 162.000 29.416,161.670 29.688,160.575 30.900 M205.757 50.800 C 205.757 53.770,205.820 54.985,205.897 53.500 C 205.974 52.015,205.974 49.585,205.897 48.100 C 205.820 46.615,205.757 47.830,205.757 50.800 M158.400 150.125 C 158.400 150.194,158.985 150.779,159.700 151.425 L 161.000 152.600 159.825 151.300 C 158.730 150.088,158.400 149.816,158.400 150.125 M167.233 177.354 C 167.640 177.729,174.800 181.187,174.800 181.008 C 174.800 180.786,167.777 177.200,167.341 177.200 C 167.190 177.200,167.142 177.269,167.233 177.354 M152.033 197.749 C 152.445 198.117,154.800 199.200,154.800 199.021 C 154.800 198.790,152.582 197.600,152.153 197.600 C 151.996 197.600,151.942 197.667,152.033 197.749 M380.705 225.883 C 381.202 225.979,381.922 225.975,382.305 225.875 C 382.687 225.775,382.280 225.696,381.400 225.701 C 380.520 225.705,380.207 225.787,380.705 225.883 M326.378 227.500 L 325.000 229.000 326.500 227.622 C 327.896 226.338,328.184 226.000,327.878 226.000 C 327.812 226.000,327.137 226.675,326.378 227.500 M385.700 226.276 C 386.085 226.376,386.715 226.376,387.100 226.276 C 387.485 226.175,387.170 226.093,386.400 226.093 C 385.630 226.093,385.315 226.175,385.700 226.276 M108.194 307.000 C 108.194 337.580,108.242 350.031,108.300 334.669 C 108.358 319.307,108.358 294.287,108.300 279.069 C 108.242 263.851,108.194 276.420,108.194 307.000 M215.748 314.000 C 215.748 316.310,215.814 317.255,215.895 316.100 C 215.976 314.945,215.976 313.055,215.895 311.900 C 215.814 310.745,215.748 311.690,215.748 314.000 M75.728 322.000 C 75.728 323.430,75.801 324.015,75.889 323.300 C 75.978 322.585,75.978 321.415,75.889 320.700 C 75.801 319.985,75.728 320.570,75.728 322.000 M291.381 356.600 C 291.381 364.740,291.434 368.013,291.500 363.874 C 291.565 359.734,291.565 353.074,291.499 349.074 C 291.434 345.073,291.381 348.460,291.381 356.600 M399.334 373.200 C 399.334 374.850,399.405 375.525,399.491 374.700 C 399.578 373.875,399.578 372.525,399.491 371.700 C 399.405 370.875,399.334 371.550,399.334 373.200 M323.728 373.200 C 323.728 374.630,323.801 375.215,323.889 374.500 C 323.978 373.785,323.978 372.615,323.889 371.900 C 323.801 371.185,323.728 371.770,323.728 373.200 M0.109 382.000 C 0.109 382.990,0.187 383.395,0.282 382.900 C 0.378 382.405,0.378 381.595,0.282 381.100 C 0.187 380.605,0.109 381.010,0.109 382.000 M75.701 382.600 C 75.705 383.480,75.787 383.793,75.883 383.295 C 75.979 382.798,75.975 382.078,75.875 381.695 C 75.775 381.313,75.696 381.720,75.701 382.600 M34.300 399.889 C 35.015 399.978,36.185 399.978,36.900 399.889 C 37.615 399.801,37.030 399.728,35.600 399.728 C 34.170 399.728,33.585 399.801,34.300 399.889 M146.500 399.887 C 147.105 399.978,148.095 399.978,148.700 399.887 C 149.305 399.795,148.810 399.720,147.600 399.720 C 146.390 399.720,145.895 399.795,146.500 399.887 M252.105 399.887 C 252.714 399.979,253.614 399.977,254.105 399.882 C 254.597 399.787,254.100 399.711,253.000 399.714 C 251.900 399.717,251.497 399.795,252.105 399.887 M362.700 399.889 C 363.415 399.978,364.585 399.978,365.300 399.889 C 366.015 399.801,365.430 399.728,364.000 399.728 C 362.570 399.728,361.985 399.801,362.700 399.889 " stroke="none" fill="#7c7c7c" fill-rule="evenodd"></path><path id="path4" d="M191.400 16.000 C 190.755 16.277,190.887 16.349,192.076 16.372 C 192.888 16.387,193.664 16.220,193.800 16.000 C 194.098 15.517,192.523 15.517,191.400 16.000 M224.678 65.395 C 225.044 66.162,225.414 66.719,225.501 66.632 C 225.684 66.449,224.470 64.000,224.196 64.000 C 224.095 64.000,224.312 64.628,224.678 65.395 M165.200 90.984 C 165.200 91.094,165.920 91.551,166.800 92.000 C 167.680 92.449,168.400 92.726,168.400 92.616 C 168.400 92.506,167.680 92.049,166.800 91.600 C 165.920 91.151,165.200 90.874,165.200 90.984 M175.000 120.000 C 175.557 121.100,176.103 122.000,176.213 122.000 C 176.323 122.000,175.957 121.100,175.400 120.000 C 174.843 118.900,174.297 118.000,174.187 118.000 C 174.077 118.000,174.443 118.900,175.000 120.000 M205.714 136.600 C 205.717 137.700,205.795 138.103,205.887 137.495 C 205.979 136.886,205.977 135.986,205.882 135.495 C 205.787 135.003,205.711 135.500,205.714 136.600 M342.307 149.490 C 343.026 149.579,344.106 149.577,344.707 149.486 C 345.308 149.395,344.720 149.322,343.400 149.324 C 342.080 149.326,341.588 149.401,342.307 149.490 M158.012 149.853 C 157.999 150.327,160.987 153.200,161.492 153.200 C 161.652 153.200,161.114 152.649,160.298 151.976 C 159.481 151.303,158.636 150.448,158.419 150.076 C 158.202 149.704,158.019 149.604,158.012 149.853 M238.778 151.900 L 237.400 153.400 238.900 152.022 C 240.296 150.738,240.584 150.400,240.278 150.400 C 240.212 150.400,239.537 151.075,238.778 151.900 M327.478 162.995 C 327.844 163.762,328.214 164.319,328.301 164.232 C 328.484 164.049,327.270 161.600,326.996 161.600 C 326.895 161.600,327.112 162.228,327.478 162.995 M217.200 202.584 C 217.200 202.694,217.920 203.151,218.800 203.600 C 219.680 204.049,220.400 204.326,220.400 204.216 C 220.400 204.106,219.680 203.649,218.800 203.200 C 217.920 202.751,217.200 202.474,217.200 202.584 M180.800 212.332 C 180.800 212.508,181.430 212.952,182.200 213.319 C 182.970 213.687,183.600 213.843,183.600 213.668 C 183.600 213.492,182.970 213.048,182.200 212.681 C 181.430 212.313,180.800 212.157,180.800 212.332 M113.500 214.626 C 112.455 215.170,111.600 215.705,111.600 215.814 C 111.600 215.924,112.500 215.557,113.600 215.000 C 114.700 214.443,115.600 213.900,115.600 213.793 C 115.600 213.529,115.636 213.514,113.500 214.626 M365.002 214.398 C 364.603 214.839,364.462 215.200,364.689 215.200 C 365.192 215.200,366.190 214.057,365.921 213.788 C 365.815 213.682,365.402 213.956,365.002 214.398 M192.400 218.187 C 192.400 218.297,193.300 218.843,194.400 219.400 C 195.500 219.957,196.400 220.323,196.400 220.213 C 196.400 220.103,195.500 219.557,194.400 219.000 C 193.300 218.443,192.400 218.077,192.400 218.187 M43.500 221.429 C 41.949 222.270,42.125 222.561,43.700 221.759 C 45.208 220.993,45.475 220.794,44.967 220.816 C 44.765 220.825,44.105 221.101,43.500 221.429 M383.700 225.887 C 384.305 225.978,385.295 225.978,385.900 225.887 C 386.505 225.795,386.010 225.720,384.800 225.720 C 383.590 225.720,383.095 225.795,383.700 225.887 M31.600 227.400 C 30.170 228.149,29.140 228.770,29.311 228.781 C 29.737 228.807,34.400 226.437,34.400 226.194 C 34.400 225.925,34.494 225.885,31.600 227.400 M388.500 226.287 C 389.105 226.378,390.095 226.378,390.700 226.287 C 391.305 226.195,390.810 226.120,389.600 226.120 C 388.390 226.120,387.895 226.195,388.500 226.287 M221.600 233.154 C 221.600 233.483,223.609 234.524,223.826 234.307 C 223.893 234.240,223.420 233.882,222.774 233.511 C 222.128 233.140,221.600 232.980,221.600 233.154 M64.800 238.800 C 61.390 240.537,58.737 241.967,58.905 241.979 C 59.330 242.008,71.200 236.040,71.200 235.797 C 71.200 235.523,71.632 235.320,64.800 238.800 M234.800 240.000 C 236.450 240.858,237.980 241.560,238.200 241.560 C 238.420 241.560,237.250 240.858,235.600 240.000 C 233.950 239.142,232.420 238.440,232.200 238.440 C 231.980 238.440,233.150 239.142,234.800 240.000 M399.309 244.800 C 399.309 245.790,399.387 246.195,399.482 245.700 C 399.578 245.205,399.578 244.395,399.482 243.900 C 399.387 243.405,399.309 243.810,399.309 244.800 M215.765 303.000 C 215.766 306.960,215.826 308.526,215.898 306.480 C 215.971 304.434,215.971 301.194,215.898 299.280 C 215.824 297.366,215.765 299.040,215.765 303.000 M12.900 297.076 C 13.285 297.176,13.915 297.176,14.300 297.076 C 14.685 296.975,14.370 296.893,13.600 296.893 C 12.830 296.893,12.515 296.975,12.900 297.076 M75.740 316.400 C 75.740 318.270,75.809 319.035,75.893 318.100 C 75.977 317.165,75.977 315.635,75.893 314.700 C 75.809 313.765,75.740 314.530,75.740 316.400 M108.165 369.400 C 108.166 373.360,108.226 374.926,108.298 372.880 C 108.371 370.834,108.371 367.594,108.298 365.680 C 108.224 363.766,108.165 365.440,108.165 369.400 M291.353 375.800 C 291.353 378.440,291.418 379.468,291.497 378.084 C 291.575 376.701,291.574 374.541,291.495 373.284 C 291.416 372.028,291.352 373.160,291.353 375.800 M323.734 378.400 C 323.734 380.050,323.805 380.725,323.891 379.900 C 323.978 379.075,323.978 377.725,323.891 376.900 C 323.805 376.075,323.734 376.750,323.734 378.400 M399.324 378.200 C 399.326 379.520,399.401 380.012,399.490 379.293 C 399.579 378.574,399.577 377.494,399.486 376.893 C 399.395 376.292,399.322 376.880,399.324 378.200 M0.101 385.000 C 0.105 385.880,0.187 386.193,0.283 385.695 C 0.379 385.198,0.375 384.478,0.275 384.095 C 0.175 383.713,0.096 384.120,0.101 385.000 M75.709 385.600 C 75.709 386.590,75.787 386.995,75.882 386.500 C 75.978 386.005,75.978 385.195,75.882 384.700 C 75.787 384.205,75.709 384.610,75.709 385.600 M217.800 397.600 C 219.106 398.920,220.265 400.000,220.375 400.000 C 220.485 400.000,219.506 398.920,218.200 397.600 C 216.894 396.280,215.735 395.200,215.625 395.200 C 215.515 395.200,216.494 396.280,217.800 397.600 M13.500 399.882 C 13.995 399.978,14.805 399.978,15.300 399.882 C 15.795 399.787,15.390 399.709,14.400 399.709 C 13.410 399.709,13.005 399.787,13.500 399.882 M39.900 399.895 C 41.055 399.976,42.945 399.976,44.100 399.895 C 45.255 399.814,44.310 399.748,42.000 399.748 C 39.690 399.748,38.745 399.814,39.900 399.895 M139.913 399.895 C 141.076 399.976,142.876 399.976,143.913 399.893 C 144.951 399.811,144.000 399.745,141.800 399.746 C 139.600 399.747,138.751 399.814,139.913 399.895 M256.700 399.895 C 257.855 399.976,259.745 399.976,260.900 399.895 C 262.055 399.814,261.110 399.748,258.800 399.748 C 256.490 399.748,255.545 399.814,256.700 399.895 M355.500 399.895 C 356.655 399.976,358.545 399.976,359.700 399.895 C 360.855 399.814,359.910 399.748,357.600 399.748 C 355.290 399.748,354.345 399.814,355.500 399.895 M384.300 399.882 C 384.795 399.978,385.605 399.978,386.100 399.882 C 386.595 399.787,386.190 399.709,385.200 399.709 C 384.210 399.709,383.805 399.787,384.300 399.882 " stroke="none" fill="#9e9e9e" fill-rule="evenodd"></path></g></svg>