<?xml version="1.0" standalone="no"?>
<!DOCTYPE svg PUBLIC "-//W3C//DTD SVG 20010904//EN"
 "http://www.w3.org/TR/2001/REC-SVG-20010904/DTD/svg10.dtd">
<svg version="1.0" xmlns="http://www.w3.org/2000/svg"
 width="512.000000pt" height="512.000000pt" viewBox="0 0 980.000000 980.000000"
 preserveAspectRatio="xMidYMid meet">

<g transform="translate(0.000000,980.000000) scale(0.100000,-0.100000)"
fill="#9e9e9e" stroke="none">
<path d="M4560 9789 c-1035 -75 -1998 -463 -2800 -1128 -150 -123 -501 -475
-622 -621 -881 -1068 -1270 -2403 -1098 -3765 119 -934 501 -1801 1124 -2545
98 -117 370 -393 496 -504 1328 -1166 3158 -1531 4825 -962 895 305 1700 879
2281 1627 540 695 885 1521 993 2384 178 1412 -247 2797 -1185 3865 -112 128
-386 398 -509 501 -762 642 -1665 1026 -2665 1134 -174 19 -664 27 -840 14z
m820 -704 c1076 -134 2005 -626 2709 -1434 477 -547 827 -1276 951 -1976 11
-66 23 -132 26 -146 4 -19 -66 44 -258 236 -325 323 -540 512 -833 732 -1273
956 -2615 1268 -4000 928 -1086 -267 -2197 -967 -3155 -1990 l-112 -120 7 65
c25 236 104 596 183 835 522 1579 1937 2717 3577 2875 61 5 128 12 150 14 97
10 637 -4 755 -19z m-87 -2390 c432 -65 822 -265 1122 -576 874 -906 679
-2376 -401 -3025 -531 -319 -1209 -360 -1777 -108 -923 409 -1383 1445 -1066
2399 35 106 120 286 185 394 295 485 811 829 1374 915 131 20 433 20 563 1z
m-4149 -2890 c1081 -1073 2178 -1663 3346 -1800 306 -36 739 -30 1061 15 975
136 1949 609 2854 1385 149 128 441 403 522 492 42 46 78 82 80 79 3 -2 -12
-66 -31 -141 -421 -1599 -1740 -2810 -3360 -3085 -280 -47 -385 -55 -726 -55
-335 1 -454 10 -735 60 -1325 234 -2470 1107 -3056 2330 -155 325 -277 696
-338 1034 l-19 105 105 -115 c58 -63 192 -199 297 -304z"/>
<path d="M4904 5296 c-199 -46 -358 -200 -409 -396 -22 -85 -16 -230 14 -314
53 -148 178 -274 326 -328 73 -26 217 -35 298 -18 138 28 294 144 360 267 33
62 67 189 67 253 0 139 -56 277 -155 379 -69 72 -128 109 -221 141 -76 27
-202 34 -280 16z"/>
</g>
</svg>
