<?xml version="1.0" standalone="no"?>
<!DOCTYPE svg PUBLIC "-//W3C//DTD SVG 20010904//EN"
 "http://www.w3.org/TR/2001/REC-SVG-20010904/DTD/svg10.dtd">
<svg version="1.0" xmlns="http://www.w3.org/2000/svg"
 width="200.000000pt" height="200.000000pt" viewBox="0 0 200.000000 200.000000"
 preserveAspectRatio="xMidYMid meet">

<g transform="translate(0.000000,200.000000) scale(0.100000,-0.100000)"
fill="#9e9e9e" stroke="none">
<path d="M1638 1870 c-148 -45 -197 -218 -92 -330 l23 -25 -81 -191 -80 -192
-54 -4 c-35 -3 -65 -13 -84 -26 -16 -12 -33 -22 -38 -22 -5 0 -51 24 -102 53
l-92 52 -2 56 c-3 149 -156 243 -291 180 -125 -58 -154 -223 -57 -324 l27 -28
-27 -77 c-66 -192 -64 -189 -109 -196 -110 -18 -179 -95 -179 -200 0 -182 216
-271 345 -141 79 78 82 188 9 274 l-34 39 48 133 47 134 49 7 c26 4 64 17 84
31 l36 23 97 -55 97 -56 0 -50 c0 -60 11 -90 48 -134 56 -67 158 -89 240 -52
82 37 134 137 115 221 -9 41 -49 110 -63 110 -16 0 -6 29 68 205 l75 181 61
11 c73 14 124 51 156 113 77 151 -76 330 -240 280z m127 -127 c38 -39 35 -102
-6 -137 -58 -49 -139 -27 -160 44 -10 33 -9 43 8 72 34 58 110 68 158 21z
m-857 -438 c51 -60 15 -151 -64 -162 -36 -5 -46 -1 -75 25 -28 25 -34 37 -34
70 0 91 113 135 173 67z m543 -304 c40 -40 40 -89 0 -133 -24 -27 -36 -33 -71
-33 -35 0 -47 6 -71 33 -32 36 -36 69 -14 112 19 37 41 49 88 50 29 0 45 -7
68 -29z m-780 -340 c88 -89 -43 -219 -138 -137 -23 20 -28 32 -28 71 0 39 5
51 28 71 41 35 99 33 138 -5z"/>
<path d="M100 1770 c0 -17 7 -20 45 -20 l45 0 0 -105 0 -105 -45 0 c-41 0 -45
-2 -45 -25 0 -23 4 -25 45 -25 l45 0 0 -105 0 -105 -45 0 c-38 0 -45 -3 -45
-19 0 -16 8 -20 43 -23 l42 -3 0 -105 0 -105 -42 -3 c-34 -3 -43 -7 -43 -22 0
-15 9 -19 43 -22 l42 -3 0 -105 0 -105 -42 -3 c-35 -3 -43 -7 -43 -23 0 -16 7
-19 45 -19 l45 0 0 -105 0 -105 -45 0 c-41 0 -45 -2 -45 -25 0 -23 4 -25 45
-25 l45 0 0 -105 0 -105 -45 0 c-38 0 -45 -3 -45 -19 0 -16 8 -20 43 -23 42
-3 42 -3 45 -45 3 -35 7 -43 23 -43 16 0 19 7 19 45 l0 45 105 0 105 0 0 -46
c0 -41 2 -45 23 -42 18 2 23 10 25 46 l3 42 105 0 104 0 0 -45 c0 -38 3 -45
20 -45 17 0 20 7 20 45 l0 45 110 0 110 0 0 -45 c0 -38 3 -45 20 -45 17 0 20
7 20 45 l0 45 104 0 105 0 3 -42 c2 -36 7 -44 26 -46 20 -3 22 1 22 42 l0 46
105 0 105 0 0 -45 c0 -38 3 -45 19 -45 16 0 20 8 23 43 l3 42 108 3 107 3 0
-46 c0 -38 3 -45 20 -45 18 0 20 7 20 85 l0 85 -750 0 -750 0 0 750 0 750 -85
0 c-78 0 -85 -2 -85 -20z"/>
</g>
</svg>
