<?xml version="1.0" standalone="no"?>
<!DOCTYPE svg PUBLIC "-//W3C//DTD SVG 20010904//EN"
 "http://www.w3.org/TR/2001/REC-SVG-20010904/DTD/svg10.dtd">
<svg version="1.0" xmlns="http://www.w3.org/2000/svg"
 width="512.000000pt" height="512.000000pt" viewBox="0 0 225.000000 225.000000"
 preserveAspectRatio="xMidYMid meet">
<metadata>
Created by potrace 1.16, written by Peter Selinger 2001-2019
</metadata>
<g transform="translate(0.000000,225.000000) scale(0.100000,-0.100000)"
fill="#9e9e9e" stroke="none">
<path d="M397 2236 c-73 -27 -117 -92 -117 -171 0 -147 158 -230 282 -149 108
70 101 251 -12 309 -44 23 -109 27 -153 11z"/>
<path d="M872 2144 c-21 -14 -22 -22 -22 -145 l0 -131 45 -44 45 -43 0 139 0
140 580 0 580 0 0 -420 0 -420 -525 0 -525 0 -72 -45 -72 -45 636 0 c620 0
638 1 648 19 6 13 10 188 10 500 l0 480 -22 15 c-20 14 -98 16 -653 16 -555 0
-633 -2 -653 -16z"/>
<path d="M1012 1978 c-7 -7 -12 -20 -12 -31 0 -23 96 -174 119 -186 29 -16
174 20 220 54 75 56 43 82 -74 60 -42 -8 -83 -15 -91 -15 -7 0 -31 26 -51 58
-21 31 -42 60 -48 64 -15 12 -50 9 -63 -4z"/>
<path d="M135 1801 c-22 -10 -52 -31 -67 -47 -55 -59 -58 -84 -58 -469 0 -336
1 -353 20 -378 24 -31 64 -42 99 -27 52 21 53 28 59 403 4 312 7 348 21 345
14 -3 16 -76 19 -779 l2 -775 28 -26 c15 -15 36 -28 47 -30 19 -3 20 4 25 142
6 158 12 177 76 257 l34 41 0 256 c0 245 1 256 19 256 10 0 22 -7 25 -16 3 -9
6 -117 6 -240 0 -123 2 -224 4 -224 2 0 23 7 46 15 23 8 53 15 66 15 27 0 28
3 14 30 -42 78 -26 206 35 290 l35 47 2 369 c3 342 4 369 21 372 16 3 17 -10
17 -160 0 -90 5 -180 10 -200 12 -42 42 -68 80 -68 26 0 331 181 378 223 33
31 31 98 -4 126 -43 33 -75 26 -181 -39 l-98 -60 -6 112 c-6 126 -17 156 -73
206 -45 39 -95 54 -170 50 l-58 -3 -48 -128 c-27 -71 -52 -132 -56 -135 -4 -4
-4 2 0 13 20 53 19 113 -2 147 -21 34 -21 34 -2 63 11 17 20 33 20 38 0 4 -25
7 -55 7 -59 0 -65 -6 -41 -50 12 -22 12 -29 -6 -64 -18 -35 -19 -47 -10 -96 5
-30 9 -56 8 -57 -1 -2 -25 57 -52 130 l-51 132 -69 2 c-51 2 -80 -2 -109 -16z"/>
<path d="M1463 1806 c-11 -6 -66 -46 -121 -90 l-101 -79 31 -38 31 -39 41 33
c23 18 74 59 114 92 65 51 73 62 70 88 -4 35 -33 51 -65 33z"/>
<path d="M1613 1604 l-103 -56 -10 27 c-11 28 -19 26 -68 -13 l-24 -19 24 -49
c16 -35 30 -50 47 -52 14 -2 66 18 133 53 73 38 113 54 121 47 7 -5 53 -40
102 -79 50 -39 100 -75 113 -82 32 -17 62 1 62 39 0 26 -16 42 -136 135 -74
58 -141 105 -147 105 -7 0 -58 -26 -114 -56z"/>
<path d="M785 826 c-61 -37 -88 -93 -83 -171 5 -74 34 -121 95 -151 47 -22
127 -23 170 0 123 63 128 251 10 321 -59 34 -136 34 -192 1z"/>
<path d="M1704 830 c-22 -11 -50 -34 -62 -50 -123 -166 76 -380 249 -266 114
76 103 253 -21 316 -50 26 -114 25 -166 0z"/>
<path d="M543 395 c-32 -16 -62 -41 -79 -67 -28 -40 -29 -46 -32 -185 l-3
-143 85 0 86 0 0 103 c0 102 8 136 29 123 7 -5 11 -47 11 -117 l0 -109 240 0
240 0 0 115 c0 92 3 115 14 115 21 0 26 -23 26 -131 l0 -99 175 0 174 0 3 113
c2 92 6 112 18 112 12 0 16 -20 18 -112 l3 -113 234 0 235 0 0 109 c0 84 3
110 14 114 8 3 17 3 20 0 3 -4 6 -55 6 -115 l0 -108 90 0 90 0 0 116 c0 142
-12 187 -65 239 -61 61 -85 65 -397 65 l-274 0 -53 -26 c-55 -28 -111 -97
-111 -137 0 -10 -15 10 -33 44 -27 54 -40 67 -86 91 l-53 28 -287 0 -287 0
-51 -25z"/>
</g>
</svg>
