<?xml version="1.0" standalone="no"?>
<!DOCTYPE svg PUBLIC "-//W3C//DTD SVG 20010904//EN"
 "http://www.w3.org/TR/2001/REC-SVG-20010904/DTD/svg10.dtd">
<svg version="1.0" xmlns="http://www.w3.org/2000/svg"
 width="512.000000pt" height="512.000000pt" viewBox="0 0 512.000000 512.000000"
 preserveAspectRatio="xMidYMid meet">

<g transform="translate(0.000000,512.000000) scale(0.100000,-0.100000)"
fill="#9e9e9e" stroke="none">
<path d="M2330 4789 c-522 -53 -1010 -292 -1380 -675 -383 -397 -599 -895
-627 -1447 -7 -146 4 -180 68 -205 l39 -15 0 -383 c0 -254 4 -391 11 -407 24
-53 47 -57 301 -57 l234 0 49 -103 c227 -468 656 -807 1165 -921 245 -54 495
-54 739 0 510 114 938 452 1166 922 l49 102 63 0 62 0 -5 -67 c-33 -388 -228
-745 -535 -975 -90 -68 -98 -77 -105 -120 -11 -67 57 -127 129 -114 48 9 189
120 303 238 249 258 398 591 423 943 l6 90 78 6 c67 4 81 9 105 32 l27 27 3
395 3 395 23 6 c13 3 37 19 52 35 28 30 29 31 26 137 -14 557 -248 1105 -642
1502 -189 190 -363 316 -601 434 -378 188 -811 267 -1229 225z m520 -225 c568
-82 1075 -403 1395 -884 74 -111 151 -258 196 -373 17 -45 34 -88 36 -94 4
-10 -34 -13 -168 -13 -203 0 -229 -8 -250 -79 l-12 -40 -68 102 c-170 256
-387 447 -664 583 -216 106 -416 160 -640 172 -324 18 -586 -34 -870 -173
-276 -135 -494 -326 -664 -582 l-68 -102 -12 40 c-21 71 -47 79 -250 79 -134
0 -172 3 -168 13 2 6 19 49 36 94 98 253 295 545 488 723 359 330 782 515
1268 554 84 6 304 -4 415 -20z m-35 -854 c715 -122 1235 -741 1235 -1470 0
-513 -251 -974 -683 -1254 -485 -316 -1129 -316 -1614 0 -432 280 -683 741
-683 1254 0 651 411 1217 1031 1420 214 71 484 89 714 50z m-1965 -1310 l0
-590 -105 0 -105 0 0 590 0 590 105 0 105 0 0 -590z m3630 0 l0 -590 -105 0
-105 0 0 590 0 590 105 0 105 0 0 -590z"/>
</g>
</svg>
