<?xml version="1.0" standalone="no"?>
<!DOCTYPE svg PUBLIC "-//W3C//DTD SVG 20010904//EN"
 "http://www.w3.org/TR/2001/REC-SVG-20010904/DTD/svg10.dtd">
<svg version="1.0" xmlns="http://www.w3.org/2000/svg"
 width="200.000000pt" height="200.000000pt" viewBox="0 0 200.000000 200.000000"
 preserveAspectRatio="xMidYMid meet">

<g transform="translate(0.000000,200.000000) scale(0.100000,-0.100000)"
fill="#9e9e9e" stroke="none">
<path d="M338 1493 c-25 -28 -149 -500 -138 -527 13 -34 27 -41 153 -74 119
-31 137 -31 170 -4 15 13 19 13 35 0 9 -8 71 -59 137 -114 236 -195 229 -191
315 -173 37 8 54 8 64 -1 24 -19 76 -30 102 -20 13 5 29 21 36 35 9 19 19 25
44 25 37 0 74 31 74 62 0 14 8 18 39 18 50 0 84 37 79 86 -1 17 4 39 11 48 13
15 16 15 36 -4 31 -29 58 -25 175 26 103 44 140 71 140 101 0 8 -46 121 -102
250 -129 297 -112 284 -281 211 -98 -43 -124 -59 -135 -81 -10 -20 -19 -27
-30 -22 -10 3 -60 17 -112 31 -91 24 -103 25 -292 18 -190 -7 -198 -6 -198 12
-1 38 -28 55 -136 84 -126 34 -165 37 -186 13z m117 -42 c39 -11 89 -24 113
-31 33 -8 42 -15 42 -33 0 -30 -117 -458 -128 -469 -11 -11 -210 39 -230 57
-11 10 -4 46 38 201 76 282 80 294 88 294 4 0 39 -9 77 -19z m1119 -39 c45
-87 187 -426 183 -437 -3 -6 -52 -33 -109 -58 -79 -35 -106 -43 -115 -33 -7 6
-56 110 -108 230 -66 151 -93 222 -86 229 11 11 200 96 213 97 4 0 14 -13 22
-28z m-434 -93 c41 -10 95 -25 120 -32 l44 -14 77 -182 c76 -178 77 -181 57
-196 -19 -13 -24 -10 -67 38 -185 207 -233 251 -292 267 -47 13 -93 -2 -168
-53 -80 -56 -121 -47 -121 24 0 23 13 62 33 101 l32 63 65 6 c80 7 124 2 220
-22z m-359 -28 c-53 -102 -48 -186 11 -217 41 -21 73 -13 149 36 34 22 69 40
78 41 38 3 68 -4 96 -21 32 -20 242 -245 274 -294 23 -34 17 -64 -14 -72 -35
-9 -72 16 -165 110 -46 47 -90 86 -97 86 -35 0 -17 -31 71 -119 73 -74 96
-103 96 -123 0 -63 -38 -48 -153 58 -85 79 -115 95 -124 68 -4 -11 113 -130
156 -161 12 -8 21 -18 21 -23 0 -11 -29 -40 -40 -40 -5 0 -42 29 -82 65 -39
36 -77 65 -84 65 -29 0 -24 -24 11 -60 30 -31 34 -38 20 -44 -33 -12 -69 -5
-104 21 -29 22 -315 257 -344 283 -6 5 64 295 88 368 3 8 28 12 80 12 l75 0
-19 -39z"/>
<path d="M322 1084 c-15 -10 -22 -25 -22 -48 0 -64 70 -90 109 -39 24 30 20
58 -11 86 -25 21 -47 22 -76 1z m53 -45 c10 -15 -1 -23 -20 -15 -9 3 -13 10
-10 16 8 13 22 13 30 -1z"/>
<path d="M1596 1056 c-15 -14 -26 -34 -26 -46 0 -29 35 -60 68 -60 76 0 84
107 9 125 -20 5 -32 1 -51 -19z m54 -41 c0 -8 -7 -15 -15 -15 -8 0 -15 7 -15
15 0 8 7 15 15 15 8 0 15 -7 15 -15z"/>
</g>
</svg>
