<?xml version="1.0" standalone="no"?>
<!DOCTYPE svg PUBLIC "-//W3C//DTD SVG 20010904//EN"
 "http://www.w3.org/TR/2001/REC-SVG-20010904/DTD/svg10.dtd">
<svg version="1.0" xmlns="http://www.w3.org/2000/svg"
 width="512.000000pt" height="512.000000pt" viewBox="0 0 512.000000 512.000000"
 preserveAspectRatio="xMidYMid meet">

<g transform="translate(0.000000,512.000000) scale(0.100000,-0.100000)"
fill="#9e9e9e" stroke="none">
<path d="M2250 4923 c-494 -22 -1009 -223 -1391 -541 -386 -323 -662 -757
-784 -1236 -54 -215 -69 -342 -69 -586 0 -244 15 -371 69 -586 101 -395 300
-753 585 -1048 421 -436 960 -687 1558 -726 843 -54 1664 357 2124 1062 91
140 98 155 98 226 -1 134 -131 237 -257 203 -72 -19 -105 -50 -198 -189 -106
-159 -208 -278 -333 -387 -776 -682 -1933 -646 -2654 82 -296 298 -473 647
-545 1073 -24 145 -24 435 0 580 74 439 260 796 569 1096 206 200 423 337 688
434 351 128 762 148 1133 55 635 -160 1157 -650 1361 -1277 18 -56 37 -117 40
-135 l7 -32 -180 -3 c-174 -3 -180 -4 -205 -27 -28 -26 -42 -77 -31 -111 9
-27 540 -667 580 -698 33 -26 81 -28 113 -6 30 21 569 666 583 698 16 34 3 88
-27 117 -25 23 -31 24 -208 27 l-183 3 -23 102 c-163 720 -685 1344 -1370
1639 -323 139 -699 207 -1050 191z"/>
<path d="M2306 4380 c-67 -21 -127 -82 -146 -151 -6 -20 -10 -297 -10 -697 l0
-663 -34 -30 c-46 -40 -91 -113 -110 -178 -54 -184 48 -382 231 -451 72 -27
189 -30 247 -5 l38 16 217 -124 c119 -69 296 -171 394 -228 153 -88 186 -103
232 -107 143 -12 258 122 224 260 -21 88 -58 116 -471 354 -373 214 -378 217
-384 253 -12 64 -49 135 -102 192 l-51 56 -3 686 -3 685 -30 44 c-17 23 -50
53 -72 66 -47 26 -124 36 -167 22z m154 -1690 c35 -25 70 -90 70 -130 0 -40
-35 -105 -70 -130 -47 -34 -118 -38 -167 -11 -61 35 -78 66 -78 141 0 76 18
108 80 140 51 27 119 23 165 -10z"/>
</g>
</svg>
